<svg preserveAspectRatio="none" width="100%" height="100%" overflow="visible" style="display: block;" viewBox="0 0 213 109.508" fill="none" xmlns="http://www.w3.org/2000/svg">
<g id="Group">
<path id="Vector" d="M99.4561 97.9085V98.0912C99.0385 98.6393 98.2293 99.84 97.1852 99.7878C97.1852 99.7878 96.872 99.7878 96.5849 99.6573C95.0709 98.8742 95.3581 94.8284 95.4886 92.923C95.7757 89.2426 96.4022 87.9114 95.593 87.2066C94.8621 86.6063 93.5048 86.8412 92.7218 87.4676C92.4607 87.6764 92.2258 87.9375 92.0431 88.6422C91.26 88.0941 89.9549 87.4154 88.3366 87.4415C85.0477 87.5198 82.3592 90.4433 81.8372 93.4711C81.6806 94.3586 81.7067 95.3244 81.8894 96.264C81.4457 97.2037 80.9497 97.778 80.5843 98.1173C80.245 98.4566 79.749 98.8481 78.2612 99.5268C78.3395 98.1956 78.3134 96.1857 78.2612 92.8186C78.2612 92.8186 78.2612 92.3748 78.1307 90.8609C78.1307 90.8609 78.1307 90.365 77.8958 89.5558C77.7131 88.8249 77.4781 88.59 77.2171 88.3812C76.4341 87.7548 75.0245 87.5198 74.3459 88.1202C73.6933 88.6683 73.8238 89.8429 74.111 91.5657C74.111 91.5657 74.111 91.6962 74.111 91.7223C74.6852 95.2199 72.9364 97.543 72.9103 97.5952C72.5971 98.039 71.7357 99.1092 70.6655 99.0831C70.5611 99.0831 70.3262 99.0831 70.0651 98.9786C68.5512 98.2739 68.8383 94.7501 68.9689 93.0796C69.2299 89.8429 69.8041 88.7466 69.0733 88.0941C68.3685 87.4415 66.8546 87.6242 66.0454 88.3551C65.7844 88.5639 65.3146 89.086 65.1318 92.0094C65.0274 93.4972 65.0535 94.7501 65.1318 95.6637C64.923 96.5773 64.6359 97.3864 64.2444 97.9868C63.8529 98.5349 63.0437 99.7356 61.9996 99.6834C61.9996 99.6834 61.6603 99.6834 61.3993 99.5529C59.8853 98.7698 60.1725 94.724 60.303 92.8186C60.5901 89.1382 61.2165 87.807 60.4074 87.1022C59.6765 86.5018 58.3192 86.7368 57.5361 87.3632C57.2751 87.572 57.0402 87.8331 56.8575 88.5378C56.0744 87.9897 54.7693 87.311 53.1249 87.3371C51.3238 87.3893 49.7055 88.2768 48.5309 89.5558C48.1916 89.9473 47.8262 90.365 47.5912 90.8348C47.0692 91.644 46.756 92.4792 46.5994 93.3667C46.3906 94.5413 46.495 95.9247 46.9126 97.0993C46.7299 97.6996 46.5211 98.1956 46.2339 98.6132C45.8424 99.1614 45.0332 100.362 43.9892 100.31C43.9892 100.31 43.6498 100.31 43.3888 100.179C41.8749 99.3963 42.162 95.3505 42.2925 93.445C42.5796 89.7646 43.2061 88.4334 42.3969 87.7287C42.1359 87.5198 41.7705 87.4154 41.4051 87.4154H40.9613C40.6481 87.4676 40.4393 87.5198 40.361 87.5459C40.0738 87.6503 37.4375 88.4073 36.2107 87.3371C35.8453 87.0239 35.7409 86.6846 35.2972 86.5802C34.9578 86.4757 34.5663 86.5802 34.3053 86.8151C33.7571 87.2588 33.6266 88.2768 33.9921 88.9293C34.1226 89.1904 34.3575 89.3731 34.6185 89.5297C34.6968 91.5657 34.6707 96.003 33.2873 98.0651C32.8958 98.6132 32.0866 99.8139 31.0425 99.7617C31.0425 99.7617 30.7293 99.7617 30.4422 99.6312C28.9283 98.8481 29.2154 94.8023 29.3459 92.8969C29.633 89.2165 30.2595 87.8853 29.4503 87.1805C28.7194 86.5802 27.3621 86.8151 26.5791 87.4415C26.318 87.6503 26.0831 87.9114 25.9004 88.6161C25.1173 88.068 23.8122 87.3893 22.1939 87.4154C18.9051 87.4937 16.2165 90.4172 15.6945 93.445C15.303 95.7681 16.0338 98.6654 17.9654 99.9183C19.1661 100.701 20.6278 100.806 20.6278 100.806C20.941 100.806 21.6197 100.858 22.4288 100.623C24.256 100.101 25.3001 98.6132 25.7699 97.9346C25.8221 97.8563 25.8482 97.8302 25.8743 97.778C25.9787 98.2478 26.1614 98.5349 26.2658 98.7698C26.553 99.318 26.7879 99.7617 27.2577 100.153C28.7455 101.354 31.2513 101.171 32.7914 100.023C33.5744 99.4224 33.966 98.6393 34.1748 98.1695C35.4016 95.4288 35.6104 92.2443 35.6104 89.9212C36.8633 90.1822 38.3772 89.9734 38.6643 89.9212H38.7426C38.7426 90.1039 38.6904 90.2606 38.6382 90.4694C38.586 90.9392 38.5338 91.4873 38.5077 92.1921C38.4033 94.0715 38.4033 95.4549 38.5077 96.499C38.586 97.282 38.6904 97.8824 38.8209 98.3C38.9254 98.7698 39.1081 99.057 39.2125 99.2919C39.4996 99.84 39.7345 100.284 40.2044 100.701C41.6922 101.902 44.198 101.719 45.738 100.571C46.5211 99.9705 46.9126 99.1875 47.1214 98.7176C47.2258 98.5088 47.3041 98.3 47.3563 98.1173C47.7218 98.8481 48.2438 99.4485 48.8964 99.8922C50.097 100.675 51.5588 100.78 51.5588 100.78C51.872 100.78 52.5506 100.832 53.3598 100.597C55.187 100.075 56.231 98.5871 56.7009 97.9085C56.7531 97.8563 56.7792 97.8041 56.8053 97.7519C56.9097 98.1956 57.0924 98.5088 57.1968 98.7437C57.4839 99.2919 57.7189 99.7356 58.1887 100.127C59.6765 101.328 62.1823 101.145 63.7223 99.9966C64.5054 99.3963 64.8969 98.6132 65.1058 98.1434C65.2102 97.8563 65.3407 97.5952 65.419 97.3081C65.419 97.3603 65.419 97.4125 65.4712 97.4386C65.5756 97.8302 65.7583 98.1173 65.8627 98.3261C66.1498 98.822 66.3848 99.1875 66.8546 99.5529C68.3424 100.597 70.8482 100.466 72.3882 99.4485C73.0408 99.0047 73.3279 98.4827 73.7716 97.8302C74.1632 97.2298 74.4242 96.6295 74.633 96.0813C74.7374 97.4908 74.7374 99.1875 74.5286 101.145C74.0588 101.302 73.6933 101.432 73.4584 101.511C70.039 102.868 67.9248 104.982 68.0553 106.809C68.1597 107.932 69.0211 108.663 69.0733 108.741C70.6133 110.02 73.354 109.55 74.9984 108.428C77.2432 106.888 77.687 103.99 78.1307 100.832C80.4799 99.6573 81.2368 98.9264 81.7067 98.3783C81.8372 98.2217 82.046 97.9346 82.2548 97.6213C82.6464 98.6132 83.2467 99.4485 84.082 100.023C85.2827 100.806 86.7444 100.91 86.7444 100.91C87.0576 100.91 87.7363 100.962 88.5454 100.727C90.3726 100.205 91.4167 98.7176 91.8865 98.039C91.9387 97.9607 91.9648 97.9346 91.9909 97.8824C92.0953 98.3522 92.278 98.6393 92.3824 98.8742C92.6696 99.4224 92.9045 99.8661 93.3743 100.258C94.8621 101.458 97.3679 101.276 98.908 100.127C99.691 99.5268 100.083 98.7437 100.291 98.2739C101.022 96.6817 101.388 94.9589 101.57 93.2884H100.709C100.605 95.0894 100.239 97.021 99.4561 98.1695V97.9085ZM25.4045 91.4351C25.3001 93.3145 25.3001 94.6979 25.4045 95.742C24.8824 97.1776 23.9689 98.8742 22.4288 99.1875C22.22 99.2397 21.7502 99.2919 21.2803 99.0831C18.9312 98.0129 19.14 90.9914 21.8546 88.9555C22.0634 88.7988 22.5854 88.4334 23.2641 88.4073C24.2821 88.4073 25.0651 89.1643 25.5089 89.7385C25.4567 90.2084 25.4045 90.7565 25.3784 91.4613L25.4045 91.4351ZM56.3616 91.4351C56.2571 93.3145 56.2571 94.6979 56.3616 95.742C55.8395 97.1776 54.9259 98.8742 53.3859 99.1875C53.1771 99.2397 52.7073 99.2919 52.2374 99.0831C49.8882 98.0129 50.097 90.9914 52.8117 88.9555C53.0205 88.7988 53.5425 88.4334 54.2212 88.4073C55.2392 88.4073 56.0222 89.1643 56.466 89.7385C56.4138 90.2084 56.3877 90.7565 56.3354 91.4613L56.3616 91.4351ZM73.5889 106.313C73.2496 106.914 72.7537 107.697 71.8401 107.984C71.7357 107.984 70.6394 108.323 69.9085 107.671C69.9085 107.671 69.3865 107.201 69.3604 106.339C69.2821 104.93 71.3703 103.338 74.3459 102.294C74.4242 103.207 74.4242 104.773 73.5628 106.313H73.5889ZM91.6255 91.6179C91.5211 93.4972 91.5211 94.8806 91.6255 95.9247C91.1034 97.3603 90.1899 99.057 88.6498 99.3702C88.441 99.4224 87.9712 99.4746 87.5013 99.2658C85.1522 98.1956 85.361 91.1741 88.0756 89.1382C88.2844 88.9816 88.8065 88.6161 89.4851 88.59C90.5031 88.59 91.2862 89.347 91.7299 89.9212C91.6777 90.3911 91.6255 90.9392 91.5994 91.644L91.6255 91.6179Z" fill="var(--fill-0, #CB9559)"/>
<path id="Vector_2" d="M211.878 92.6624L211.747 92.7669C211.799 93.9676 211.643 95.873 210.599 97.7524C209.607 99.5273 208.537 99.8927 208.275 99.971C207.988 100.075 207.545 100.18 207.127 100.023C206.527 99.7622 206.213 99.0314 206.057 98.2483C205.796 96.9954 205.613 96.2123 205.717 93.7848C205.848 89.739 205.822 89.0343 206.031 86.4241C208.145 86.2935 209.607 86.0586 210.024 85.4061C210.077 85.3278 210.207 85.0928 210.129 84.9623C209.946 84.6491 208.928 84.9101 208.484 85.0406C207.832 85.1712 207.101 85.2495 206.135 85.3278V84.9884C206.448 81.9084 206.892 80.7338 206.135 80.1073C205.404 79.507 204.047 79.7419 203.264 80.3684C203.003 80.5772 202.768 80.8382 202.585 81.543C202.481 81.8562 202.429 82.2738 202.35 82.8481C202.22 83.866 202.22 84.5447 202.22 84.5708V85.4844C200.732 85.4844 199.557 85.4844 199.296 86.0586C199.296 86.1108 199.218 86.2152 199.244 86.3457C199.401 86.8417 200.889 86.7634 201.567 86.7112C201.776 86.7112 201.959 86.7112 202.168 86.659V87.1549C202.168 87.1549 202.089 90.8614 202.168 93.8892C202.037 95.6381 201.672 97.413 200.941 98.4832C200.549 99.0314 199.74 100.232 198.696 100.18C198.696 100.18 198.383 100.18 198.096 100.049C196.582 99.2663 196.869 95.2205 196.999 93.315C197.287 89.6346 197.913 88.3034 197.104 87.5986C196.373 86.9983 195.016 87.2332 194.233 87.8597C193.972 88.0685 193.763 88.3034 193.58 89.0082V89.0604C193.476 89.3736 193.423 89.8173 193.345 90.3655C193.345 90.6004 193.293 90.8353 193.267 91.1224C193.267 93.3672 193.058 96.8127 191.909 98.5354C191.518 99.0836 190.709 100.284 189.665 100.232H189.456C189.456 100.232 189.195 100.18 189.064 100.128C187.55 99.3446 187.838 95.2988 187.968 93.3933C188.255 89.7129 188.882 88.3817 188.072 87.6769C187.942 87.5725 187.759 87.4681 187.603 87.4159C186.846 87.181 185.802 87.4159 185.175 87.938C184.914 88.1468 184.679 88.4078 184.496 89.1126C184.392 89.4258 184.34 89.8695 184.262 90.4177C184.262 90.7309 184.183 91.018 184.183 91.3834C184.053 92.7669 183.948 93.8631 183.766 94.855C183.557 96.1079 183.244 97.1259 182.669 98.1439C182.539 98.4049 181.312 100.441 180.164 100.336C179.955 100.336 179.772 100.232 179.746 100.206C179.093 99.8927 178.806 99.1097 178.676 98.431C178.415 97.1781 178.232 96.395 178.336 93.9676C178.441 89.9217 178.415 89.217 178.624 86.6068C179.485 86.5285 180.242 86.4763 180.842 86.3718C181.704 86.2152 182.33 86.0064 182.565 85.6149C182.565 85.6149 182.617 85.6149 182.617 85.5627C182.669 85.4844 182.8 85.2495 182.722 85.1189C182.539 84.8057 181.521 85.0667 181.077 85.1972C180.425 85.3278 179.668 85.4061 178.728 85.4844C178.728 85.38 178.728 85.2233 178.78 85.145C179.093 82.065 179.537 80.8904 178.78 80.264C178.049 79.6636 176.692 79.8985 175.909 80.525C175.648 80.7338 175.413 80.9948 175.23 81.6996C175.126 82.0128 175.074 82.4304 174.995 83.0047C174.839 83.9966 174.865 84.7013 174.865 84.7274C174.865 84.9884 174.813 85.3017 174.813 85.641C173.325 85.641 172.15 85.641 171.889 86.2152C171.889 86.2674 171.811 86.3718 171.837 86.5024C171.994 86.9983 173.481 86.92 174.16 86.8678C174.369 86.8678 174.552 86.8678 174.76 86.8156V87.3115C174.76 87.3115 174.682 90.9658 174.76 93.9937C174.604 95.7686 174.264 97.5696 173.508 98.6659C173.116 99.2141 172.307 100.415 171.263 100.363C171.263 100.363 170.95 100.363 170.662 100.232C169.148 99.449 169.436 95.4032 169.566 93.4977C169.853 89.8173 170.48 88.4861 169.671 87.7814C168.94 87.181 167.582 87.4159 166.799 88.0424C166.538 88.2512 166.303 88.5122 166.121 89.217C166.016 89.5302 165.964 89.9739 165.886 90.5221C165.886 90.8353 165.833 91.1224 165.807 91.4879C165.494 94.5679 165.338 96.4473 164.293 98.2222C164.163 98.4832 162.936 100.519 161.788 100.415C161.579 100.415 161.396 100.31 161.37 100.284C160.717 99.971 160.43 99.188 160.3 98.5093C160.039 97.2564 159.856 96.4734 159.961 94.0459C160.091 90 160.039 89.2953 160.274 86.6851C162.388 86.5546 163.85 86.3196 164.267 85.6671C164.32 85.5888 164.424 85.3539 164.346 85.2234C164.189 84.9101 163.145 85.1711 162.701 85.3017C162.075 85.4322 161.318 85.5105 160.352 85.5888C160.352 85.4844 160.404 85.3278 160.404 85.2495C160.717 82.1694 161.161 80.9948 160.404 80.3684C159.673 79.768 158.316 80.0029 157.533 80.6294C157.272 80.8382 157.037 81.0992 156.854 81.804C156.75 82.1172 156.698 82.5348 156.619 83.1091C156.489 84.101 156.489 84.8057 156.489 84.8318C156.489 85.0928 156.489 85.4061 156.437 85.7454C154.975 85.7454 153.8 85.7454 153.539 86.3196C153.539 86.3718 153.461 86.4763 153.487 86.6068C153.644 87.1027 155.106 87.0244 155.81 86.9722C156.019 86.9722 156.202 86.9722 156.411 86.92V87.4159C156.411 87.4159 156.332 91.3834 156.411 94.5157C155.236 95.4293 154.166 95.9513 153.226 96.2906V96.2123C153.226 96.2123 153.226 96.0035 153.174 95.873V95.7947C153.174 95.5859 153.096 95.4032 153.07 95.1682C152.704 93.3672 151.921 92.0882 151.269 91.0963C149.911 88.9821 148.606 87.0766 147.405 85.4061C147.327 85.3017 147.197 85.145 147.014 85.0928C146.544 84.9362 146.048 85.3539 145.657 85.641C145.343 85.8759 144.9 86.2413 144.691 86.8939C144.586 87.2332 144.612 87.3637 144.534 88.5383C144.534 88.8776 144.456 89.1387 144.43 89.3214C144.43 89.3736 144.117 92.1665 143.568 94.7506C142.733 94.9333 142.342 95.2466 142.133 95.5076C141.298 96.395 141.376 97.9873 141.924 99.2141C141.82 99.3446 141.715 99.4751 141.611 99.6056C141.324 99.9188 140.749 100.519 139.94 100.519C139.836 100.519 139.627 100.519 139.34 100.389C139.053 100.258 138.844 99.9971 138.687 99.6317C138.087 98.431 138.087 96.2384 138.191 94.6201V94.5418C138.191 94.333 138.244 94.0459 138.27 93.7065V93.576C138.348 91.6967 138.374 89.1648 136.991 88.0424C136.756 87.8858 136.521 87.7553 136.26 87.703C135.529 87.442 134.798 87.5203 134.589 87.5725C131.953 87.8858 130.439 90.9658 129.499 92.8452C129.238 93.3411 129.03 93.8109 128.899 94.2286V89.3736C128.899 88.3817 128.064 87.5464 127.046 87.5464C126.028 87.5464 125.219 88.3817 125.219 89.3736V100.65C125.219 101.015 125.532 101.328 125.897 101.328H126.863C128.012 101.328 128.925 100.389 128.925 99.2663V98.3527C128.977 96.7866 129.421 95.5859 129.787 94.7245C130.778 92.297 131.901 89.739 133.65 89.5041C133.832 89.5041 134.015 89.4519 134.198 89.5563C134.694 89.8173 134.772 90.6526 134.615 94.5679C134.615 95.4293 134.563 95.351 134.563 95.5598C134.563 97.3608 134.511 98.6398 135.242 99.7622C135.738 100.519 136.39 100.937 136.677 101.12C138.322 102.033 140.384 101.589 141.689 100.65C142.002 100.441 142.237 100.18 142.446 99.9188C143.803 101.615 146.257 101.615 147.379 101.615C147.927 101.615 148.919 101.615 150.016 101.093C150.538 100.885 151.791 100.284 152.574 98.9008C152.756 98.5876 153.043 97.9612 153.174 97.1781C154.505 96.7866 155.628 96.0818 156.437 95.5598C156.437 95.873 156.489 96.2384 156.515 96.5256C156.515 96.9954 156.593 97.6218 156.828 98.3266C157.037 98.9269 157.376 100.023 158.212 100.754C159.699 102.007 162.231 101.772 163.745 100.624C164.528 100.023 164.92 99.2402 165.129 98.7703C165.442 98.1178 165.651 97.4391 165.86 96.7344C165.938 97.413 166.016 97.9351 166.147 98.3266C166.251 98.7964 166.434 99.0836 166.538 99.3185C166.825 99.8666 167.06 100.31 167.53 100.702C169.018 101.903 171.524 101.72 173.064 100.571C173.847 99.971 174.238 99.188 174.447 98.7181C174.656 98.2483 174.839 97.7263 174.995 97.2303C175.074 97.5435 175.126 97.909 175.256 98.3005C175.465 98.9008 175.804 99.9971 176.666 100.728C178.128 101.981 180.659 101.746 182.199 100.597C182.983 99.9971 183.374 99.2141 183.583 98.7442C183.792 98.2744 183.922 97.8307 184.079 97.3608C184.157 97.152 184.209 96.9171 184.288 96.7083C184.366 97.3869 184.47 97.909 184.601 98.3005C184.705 98.7703 184.888 99.0575 184.992 99.2924C185.28 99.8405 185.514 100.284 185.984 100.676C186.637 101.198 187.498 101.485 188.412 101.485C189.534 101.537 190.657 101.172 191.518 100.519C192.301 99.9188 192.693 99.1358 192.927 98.6659C193.136 98.1961 193.293 97.7524 193.45 97.2825C193.528 97.6741 193.554 98.0134 193.658 98.2483C193.763 98.7181 193.945 99.0053 194.05 99.2402C194.337 99.7883 194.572 100.232 195.042 100.65C196.53 101.85 199.035 101.668 200.575 100.519C201.358 99.9188 201.75 99.1358 201.985 98.6659C202.194 98.17 202.376 97.674 202.533 97.1781C202.585 97.4913 202.664 97.8568 202.768 98.2483C202.82 98.3527 203.29 99.8666 204.151 100.676C205.43 101.824 207.701 101.668 209.267 100.937C211.851 99.6578 212.478 96.4734 212.791 95.0377C212.948 94.1764 213 93.4455 213 92.9235H212.008L211.878 92.6624ZM145.448 88.8515C146.231 89.7129 147.144 90.9397 147.901 92.558C148.423 93.7587 148.737 94.8811 148.893 95.8469C147.405 95.2466 146.126 94.333 144.508 94.2808C144.978 92.3492 145.265 90.3655 145.448 88.8515ZM148.423 99.6317C148.293 99.7622 147.666 100.389 146.648 100.493C145.578 100.571 144.586 99.9971 144.038 99.2141C143.542 98.4571 143.307 97.3086 143.777 96.4734C143.777 96.4734 143.908 96.2645 144.012 96.1601C145.056 95.0638 148.684 96.7083 149.05 96.9171C149.102 97.0215 149.415 98.5615 148.371 99.6578L148.423 99.6317Z" fill="var(--fill-0, #CB9559)"/>
<path id="Vector_3" d="M167.636 85.1974C169.202 85.5628 171.055 83.9184 170.846 82.9265C170.69 82.0652 168.941 81.4387 167.636 81.9085C167.557 81.9085 166.07 82.4567 166.07 83.553C166.07 84.3882 166.931 85.0408 167.636 85.1974Z" fill="var(--fill-0, #CB9559)"/>
<path id="Vector_4" d="M124.49 80.2628C124.803 79.9496 125.143 79.4536 124.986 79.2187C124.725 78.8794 123.472 79.3231 122.428 79.558C120.94 79.8713 120.288 79.6363 118.748 79.3492C118.591 78.54 117.782 77.9136 116.738 77.9136C115.876 77.9136 115.145 78.3573 114.832 79.0099C113.344 79.0099 110.917 79.1665 109.299 80.1584C108.855 80.4194 108.333 80.837 108.072 81.5157C107.993 81.6984 107.654 82.612 108.176 83.2645C108.724 83.9432 109.925 83.9432 110.343 83.4733C110.708 83.0296 110.212 82.3771 110.656 81.5157C110.865 81.1242 111.152 80.9153 111.361 80.7587C112.353 80.0018 113.71 80.0018 114.728 80.1323V100.126C112.431 99.6827 111.074 99.6305 109.899 99.8394C109.377 99.9438 108.724 100.1 108.281 100.675C107.967 101.118 107.654 101.954 108.098 102.528C108.594 103.207 109.69 103.154 110.264 102.737C110.604 102.476 110.604 102.189 110.813 101.928C111.569 100.988 113.684 101.432 114.415 101.614C114.545 101.614 114.702 101.693 114.832 101.719L115.38 101.823C116.451 102.058 117.599 102.267 118.669 102.371H118.852C120.966 102.632 122.898 102.554 123.864 101.562C124.438 100.962 124.673 99.996 124.464 99.8394C124.255 99.6827 123.707 100.283 122.611 100.701C121.567 101.092 120.653 101.092 119.974 101.092C119.557 101.092 119.217 101.04 118.826 100.988V81.0458C120.653 81.3591 123.263 81.5418 124.516 80.2889L124.49 80.2628Z" fill="var(--fill-0, #CB9559)"/>
<path id="Vector_5" d="M18.1488 77.5486C17.8878 77.1832 16.661 77.7052 15.4603 77.9402C14.0508 78.2273 13.2155 78.0185 11.8843 77.7313C11.6755 76.9744 10.8924 76.4001 9.92662 76.4001C9.19577 76.4001 8.59542 76.7134 8.22999 77.2093C6.01131 77.0005 3.47941 77.0788 1.70447 78.5666C1.41734 78.8015 -0.122679 80.0805 0.00783094 81.8033C0.00783094 81.9599 0.164444 83.4999 1.41734 84.0481C1.93939 84.283 2.95737 84.4657 3.3228 83.9697C3.94925 83.2128 2.35702 81.6467 3.06178 80.0805C3.27059 79.6368 3.58382 79.3758 3.79263 79.1931C4.99333 78.1751 6.76827 78.3317 7.86456 78.5666V99.5266C7.86456 100.936 9.24797 102.111 10.9446 102.085C11.4927 102.085 11.9626 101.693 11.9626 101.223V79.6368C13.868 79.95 16.3738 80.0544 17.6267 78.6971C17.94 78.3578 18.3054 77.7574 18.1488 77.5225V77.5486Z" fill="var(--fill-0, #CB9559)"/>
<path id="Vector_6" d="M148.242 42.3377C141.56 49.5941 133.625 53.7966 125.873 53.7966C124.698 53.7966 123.523 53.6922 122.375 53.5094C122.244 53.4833 122.14 53.4572 122.009 53.4311C122.088 53.4833 122.166 53.5356 122.244 53.6139C125.82 56.2241 130.519 57.5031 135.739 57.5031C142.787 57.5031 150.852 55.18 158.631 50.6121C159.779 49.9335 159.884 48.3412 158.866 47.506C156.151 45.3134 153.358 43.4601 150.539 41.9201C149.782 41.5025 148.842 41.7113 148.268 42.3377H148.242Z" fill="var(--fill-0, #CB9559)"/>
<path id="Vector_7" d="M134.59 35.3938C134.303 35.9419 134.016 36.464 133.703 36.986C130.779 41.7888 126.89 45.417 122.166 47.3485C120.756 47.9228 119.295 48.3404 117.781 48.6015C119.764 49.5672 121.513 50.0371 122.949 50.2981C123.915 50.4547 124.906 50.533 125.898 50.533C132.815 50.533 140.02 46.6438 146.18 39.805C146.571 39.3874 146.937 38.9437 147.302 38.4999C147.668 38.0823 148.033 37.6386 148.372 37.1948C150.643 34.2975 152.731 30.9564 154.558 27.2499C155.107 26.1537 154.48 24.8224 153.279 24.5614C148.973 23.5434 144.796 23.0736 140.881 23.0736C140.672 23.0736 140.463 23.0736 140.255 23.0736C139.367 23.0736 138.61 23.7262 138.427 24.5875C137.723 27.9025 136.705 30.9825 135.4 33.7755C135.165 34.3236 134.904 34.8457 134.616 35.3677L134.59 35.3938Z" fill="var(--fill-0, #CB9559)"/>
<path id="Vector_8" d="M122.558 23.964C122.636 24.5643 122.662 25.1386 122.689 25.7389C122.715 26.3915 122.715 27.0179 122.689 27.6705C122.584 31.0637 121.827 34.2221 120.418 37.0933C119.609 38.7378 118.747 39.9646 118.251 40.6171C116.32 43.1751 114.205 44.7673 112.744 45.707C112.926 45.707 113.109 45.707 113.292 45.707H113.527C113.814 45.707 114.101 45.707 114.388 45.707C115.119 45.6809 115.798 45.6287 116.424 45.5243C118.251 45.2633 119.739 44.7934 120.914 44.3236C124.333 42.9141 127.283 40.4605 129.632 37.1977C130.023 36.6235 130.441 36.0492 130.806 35.4228C131.146 34.8746 131.459 34.3004 131.772 33.7262C133.338 30.7244 134.539 27.2528 135.322 23.4419C135.426 22.8938 135.531 22.3195 135.635 21.7453C135.714 21.1972 135.818 20.649 135.87 20.0748C136.366 16.29 136.444 12.218 136.105 7.96339C136.001 6.73659 134.774 5.92743 133.599 6.31896C128.875 7.93729 124.62 10.0255 120.966 12.453C120.235 12.9489 119.974 13.8886 120.287 14.6977C121.488 17.83 122.219 20.9361 122.506 23.9379L122.558 23.964Z" fill="var(--fill-0, #CB9559)"/>
<path id="Vector_9" d="M54.2482 50.6374C62.0266 55.2052 70.0922 57.5283 77.1137 57.5283C82.3602 57.5283 87.0325 56.2493 90.6084 53.6391C90.6867 53.5869 90.7651 53.5347 90.8434 53.4564C90.7128 53.4825 90.6084 53.5086 90.4779 53.5347C89.3294 53.7174 88.1548 53.8218 86.9803 53.8218C79.2279 53.8218 71.2668 49.6194 64.6108 42.363C64.0365 41.7366 63.0968 41.5277 62.3399 41.9454C59.5208 43.4593 56.7279 45.3386 54.0133 47.5312C52.9692 48.3665 53.0997 49.9848 54.2482 50.6374Z" fill="var(--fill-0, #CB9559)"/>
<path id="Vector_10" d="M64.505 37.2203C64.8443 37.6901 65.2098 38.1077 65.5752 38.5515C65.9406 38.9952 66.306 39.4128 66.6976 39.8305C72.8316 46.6692 80.0618 50.5584 86.9789 50.5584C87.9708 50.5584 88.9627 50.4801 89.9284 50.3235C91.3379 50.0886 93.0868 49.5927 95.0705 48.6269C93.5305 48.3659 92.0688 47.9482 90.6593 47.374C85.9609 45.4163 82.0456 41.8142 79.1222 37.0114C78.8089 36.4894 78.4957 35.9674 78.2347 35.4192C77.9476 34.8972 77.6866 34.3751 77.4516 33.827C76.1465 31.0341 75.1286 27.954 74.4238 24.6391C74.2411 23.7777 73.4841 23.1251 72.5966 23.1251C72.3878 23.1251 72.179 23.1251 71.9702 23.1251C68.0549 23.1251 63.8785 23.595 59.5717 24.613C58.371 24.9001 57.7446 26.2052 58.2927 27.3015C60.1198 31.008 62.208 34.3229 64.4789 37.2464L64.505 37.2203Z" fill="var(--fill-0, #CB9559)"/>
<path id="Vector_11" d="M77.1916 21.7716C77.296 22.3458 77.4004 22.9201 77.5048 23.4682C78.2618 27.2791 79.4625 30.7507 81.0547 33.7524C81.3679 34.3528 81.6811 34.9009 82.0205 35.4491C82.3859 36.0755 82.8035 36.6498 83.1951 37.224C85.5703 40.5129 88.5199 42.9665 91.9132 44.3499C93.0617 44.8197 94.5495 45.2895 96.4027 45.5245C97.0292 45.6289 97.7339 45.6811 98.4648 45.7072C98.7519 45.7072 99.039 45.7072 99.3262 45.7072H99.5611C99.7438 45.7072 99.9265 45.7072 100.109 45.7072C99.796 45.4723 97.1597 43.5407 95.5936 41.818C95.0454 41.2176 94.6017 40.6173 94.6017 40.6173C93.7403 39.4949 93.0355 38.3203 92.4352 37.0674C91.0257 34.1962 90.2948 31.0117 90.1643 27.6445C90.1643 27.0181 90.1643 26.3916 90.1643 25.7391C90.1643 25.1387 90.2165 24.5384 90.2948 23.938C90.5819 20.9363 91.3128 17.8563 92.5135 14.724C92.8267 13.9148 92.5657 12.9752 91.8348 12.4792C88.1806 10.0517 83.9259 7.96356 79.2014 6.34523C78.0268 5.9537 76.8 6.76286 76.6956 7.98966C76.3563 12.2443 76.4346 16.3162 76.9306 20.101C77.0089 20.6753 77.0872 21.2234 77.1655 21.7716H77.1916Z" fill="var(--fill-0, #CB9559)"/>
<path id="Vector_12" d="M106.427 13.2859C107.027 13.2859 107.523 12.7899 107.523 12.1896C107.523 11.5892 107.027 11.0933 106.427 11.0933C105.826 11.0933 105.357 11.5892 105.357 12.1896C105.357 12.7899 105.826 13.2859 106.427 13.2859Z" fill="var(--fill-0, #CB9559)"/>
<path id="Vector_13" d="M97.1861 38.6311C97.7604 39.3881 98.4912 40.1972 99.4309 41.0847C99.9791 41.5806 100.579 42.0766 101.284 42.5725C101.493 42.703 102.119 43.1729 103.033 43.7471C104.077 44.3997 104.599 44.7129 105.043 44.8434C106.4 45.261 107.601 44.9217 107.836 44.8434C108.28 44.7129 108.802 44.3997 109.846 43.7471C110.759 43.199 111.386 42.7291 111.594 42.5725C112.299 42.0766 112.9 41.5806 113.448 41.0847C114.387 40.2233 115.118 39.3881 115.693 38.6311C117.52 36.2297 118.668 33.4107 119.164 30.3567C119.295 29.5737 119.373 28.7645 119.425 27.9553C119.451 27.2767 119.477 26.5719 119.425 25.8933C119.321 22.5522 118.538 19.0023 117.102 15.3741C116.919 14.8521 116.71 14.33 116.449 13.808C116.241 13.3121 116.006 12.79 115.745 12.2941C113.839 8.37877 111.177 4.43736 107.836 0.62645C107.105 -0.208817 105.774 -0.208817 105.043 0.62645C101.702 4.43736 99.0394 8.40487 97.16 12.2941C96.899 12.79 96.6641 13.3121 96.4292 13.808C96.1943 14.33 95.9593 14.8782 95.7766 15.4002C94.341 19.0284 93.5579 22.5783 93.4535 25.9194C93.4013 26.6241 93.4013 27.3028 93.4535 27.9814C93.5057 28.8167 93.584 29.6259 93.7146 30.3828C94.2105 33.4368 95.359 36.2297 97.1861 38.6311ZM105.069 9.81439C105.408 9.50116 105.826 9.10963 106.452 9.08353C107.079 9.08353 107.549 9.50116 107.862 9.78828C108.175 10.0754 109.115 10.9368 109.036 12.1897C108.984 13.3904 107.94 14.7999 106.426 14.7999C104.912 14.7999 103.842 13.3904 103.816 12.1897C103.764 11.0151 104.651 10.2059 105.069 9.81439ZM100.997 15.8701C101.075 15.5046 101.441 15.1392 101.832 15.1392C101.989 15.1392 102.119 15.1653 102.198 15.2175C102.694 15.4263 103.451 15.7135 104.39 15.9223C105.017 16.0789 107.001 16.5487 108.906 15.9223C110.472 15.4263 111.255 14.9043 111.255 14.9043C111.542 14.7216 111.777 14.5389 111.856 14.5911C111.96 14.6955 111.49 15.7135 110.681 16.4965C110.603 16.5487 110.211 16.9403 109.663 17.2274C107.523 18.402 103.973 18.0104 102.172 17.0708C101.937 16.9664 101.728 16.8619 101.571 16.7314C101.075 16.366 101.049 16.0789 101.049 15.9745C101.049 15.9484 101.049 15.8962 101.049 15.8701H100.997ZM102.328 22.7088C102.563 22.3173 102.694 21.978 102.563 21.7952C102.511 21.7169 102.328 21.5342 102.067 21.4298C101.702 21.2732 101.493 21.3776 101.31 21.2471H101.284C101.284 21.2471 101.232 21.1427 101.206 21.0905C101.128 20.9339 101.128 20.7512 101.128 20.699C101.154 20.4118 101.362 20.203 101.441 20.1247C101.623 19.942 101.885 19.8115 102.224 19.7332C102.746 19.5766 103.398 19.4983 104.051 19.4722C104.416 19.4722 104.782 19.4461 105.095 19.4461C105.965 19.4461 106.565 19.4461 106.896 19.4461C107.679 19.4461 108.332 19.3939 108.854 19.3939C109.95 19.3416 110.524 19.3155 110.838 19.4461C110.942 19.4722 110.994 19.5244 111.046 19.6288C111.229 19.9942 110.733 20.5945 110.707 20.6207C110.394 21.0122 109.924 21.1166 109.689 21.1688C109.663 21.1688 109.611 21.1688 109.585 21.1688C109.271 21.221 109.063 21.221 108.854 21.1949C108.436 21.1688 108.018 21.1949 107.601 21.1949C107.392 21.1949 107.157 21.221 106.974 21.2471C106.505 21.2471 105.983 21.4037 105.513 21.6386C105.043 21.8736 104.547 22.1607 104.155 22.5C103.529 22.9959 103.085 23.5441 103.059 23.8573C103.033 23.9095 103.059 23.9617 103.059 24.0139C103.085 24.0661 103.137 24.0922 103.19 24.1183C103.372 24.1966 103.712 24.1705 104.286 24.4577C104.912 24.797 105.017 25.0841 105.382 25.0841C105.434 25.0841 105.487 25.0841 105.539 25.058C105.539 25.0841 105.539 25.1102 105.565 25.1363C105.565 25.1102 105.565 25.058 105.617 25.0319C105.878 24.9275 106.061 24.5882 106.452 24.2488C106.452 24.2488 106.583 24.1444 106.818 23.9617C107.131 23.7529 107.601 23.4658 108.227 23.3092H108.28C108.828 23.1787 109.506 23.1526 110.185 23.3092C110.681 23.4397 111.177 23.6746 111.594 24.0661C112.456 24.8753 112.586 25.9716 112.639 26.3109C112.926 28.9211 110.707 31.5574 109.298 32.8625C108.854 33.2802 108.488 33.5673 108.306 33.6717C108.227 33.7239 107.836 33.9327 107.862 34.0893C107.888 34.1937 108.045 34.2459 108.097 34.2459C108.462 34.3503 108.932 34.8202 109.35 35.4466C109.663 35.9165 109.95 36.4646 110.159 36.9867C110.315 37.3782 110.577 38.0829 110.315 38.3701C110.237 38.4223 110.185 38.4484 110.159 38.4484C109.872 38.5267 109.532 38.2396 109.141 37.7958C108.723 37.3521 108.253 36.8039 107.679 36.4385C107.444 36.2819 107.209 36.1514 106.948 36.0992C106.87 36.0992 106.792 36.0731 106.713 36.047C106.661 36.047 106.557 36.047 106.426 36.047C106.322 36.047 106.191 36.047 106.087 36.0992C105.826 36.1775 105.617 36.2819 105.356 36.4646C105.121 36.6212 104.86 36.83 104.521 37.065C104.234 37.2477 104.025 37.4043 103.868 37.5087C103.555 37.7175 103.398 37.7958 103.32 37.7175C103.137 37.587 103.32 36.9084 103.712 36.2558C103.816 36.0731 103.947 35.8904 104.129 35.6816C104.495 35.2378 104.912 34.9507 105.278 34.768C105.539 34.6114 105.748 34.5331 105.93 34.4548L106.191 34.3242C106.452 34.2198 106.687 34.0893 106.922 33.9066C107.235 33.7239 107.523 33.5412 107.784 33.2802C108.332 32.8625 108.828 32.3405 109.271 31.7923C109.898 30.9832 110.368 30.0957 110.577 29.2082C110.681 28.7123 111.02 27.3811 110.263 26.337C110.185 26.2326 109.793 25.7106 109.115 25.4495C108.88 25.3451 108.619 25.2929 108.332 25.2929C108.097 25.2929 107.81 25.319 107.549 25.3973C107.47 25.4234 107.366 25.4495 107.288 25.5017C106.87 25.6584 106.557 25.9194 106.426 26.2848C106.322 26.598 106.426 26.9374 106.557 27.2506C106.87 27.9553 107.444 28.5818 107.183 28.8689C107.157 28.9211 107.105 28.9472 107.079 28.9472H107.027C106.739 29.0255 106.505 28.8689 106.165 28.5557C105.852 28.2686 105.434 27.8509 104.886 27.4855C104.886 27.4333 104.86 27.3811 104.834 27.3289C104.834 27.355 104.808 27.3811 104.808 27.4072C104.704 27.3289 104.573 27.2506 104.469 27.1723C104.103 26.9374 103.79 26.8068 103.607 26.7285C101.78 25.9455 100.684 26.4414 100.423 25.9977C100.083 25.3712 101.754 23.7529 102.485 22.6827L102.328 22.7088Z" fill="var(--fill-0, #CB9559)"/>
<path id="Vector_14" d="M112.559 61.286C115.247 59.4066 117.518 57.8144 117.91 55.9351C117.962 55.674 117.988 55.413 117.962 55.1259C117.753 52.6462 114.438 51.0801 113.342 50.558C112.507 50.1665 111.88 50.0099 111.071 49.8011C110.679 49.6967 110.157 49.5923 109.557 49.4878H109.427C109.087 49.4095 108.696 49.3573 108.278 49.3312C108.095 49.3312 107.939 49.3051 107.756 49.279C107.521 49.279 107.286 49.2529 107.025 49.2529C106.816 49.2529 106.608 49.2529 106.425 49.2529C106.216 49.2529 106.033 49.2529 105.825 49.2529C105.563 49.2529 105.329 49.2529 105.094 49.279C104.911 49.279 104.754 49.279 104.572 49.3312C104.154 49.3834 103.789 49.4095 103.423 49.4878H103.293C102.692 49.6184 102.17 49.7228 101.779 49.8272C100.97 50.036 100.317 50.1926 99.5078 50.5841C98.4376 51.1062 95.0966 52.6723 94.8877 55.152C94.8877 55.4391 94.8877 55.7001 94.9399 55.9612C95.3315 57.8405 97.5762 59.4327 100.291 61.3121C102.092 62.5911 103.945 63.4264 105.772 63.9223C106.19 64.0267 106.66 64.0267 107.077 63.9223C108.905 63.4525 110.758 62.6172 112.559 61.3121V61.286Z" fill="var(--fill-0, #CB9559)"/>
</g>
</svg>
