<svg preserveAspectRatio="none" width="100%" height="100%" overflow="visible" style="display: block;" viewBox="0 0 16 14.6667" fill="none" xmlns="http://www.w3.org/2000/svg">
<path id="Vector" d="M15.8446 3.47393C15.4222 1.87043 14.1799 0.606694 12.6039 0.177301C11.0599 -0.241499 9.41995 0.183819 8.00797 1.34815C6.97759 0.491809 5.83601 0.0281952 4.67043 0.000492471C3.40405 -0.0174329 2.22247 0.454329 1.33128 1.35956C-0.343887 3.06328 -0.709481 6.13992 1.83208 8.72442L7.43998 14.4279C7.59678 14.5868 7.80158 14.6667 8.00637 14.6667C8.21117 14.6667 8.41596 14.5868 8.57276 14.4279L14.1807 8.72442C15.7078 7.17144 16.3142 5.2575 15.8446 3.47393ZM13.0479 7.57231L8.00637 12.6998L2.96486 7.57231C1.08409 5.65838 1.38648 3.60837 2.46407 2.51167C2.98486 1.98206 3.72404 1.63659 4.56243 1.63659C5.45841 1.63659 6.4672 2.03176 7.43918 3.02091C7.75198 3.33949 8.25917 3.33949 8.57196 3.02091C10.4375 1.12408 12.4463 1.44185 13.5223 2.53693C14.1015 3.12683 14.4111 3.90903 14.3959 4.7393C14.3783 5.7146 13.9119 6.69397 13.0479 7.57231Z" fill="var(--fill-0, #FBF8EF)"/>
</svg>
