<svg preserveAspectRatio="none" width="100%" height="100%" overflow="visible" style="display: block;" viewBox="0 0 18 18" fill="none" xmlns="http://www.w3.org/2000/svg">
<g id="Group">
<path id="Vector" d="M9.00528 1.62102C11.4114 1.62102 11.6963 1.63157 12.6426 1.67376C13.522 1.71244 13.9969 1.86013 14.3135 1.9832C14.7321 2.14495 15.0346 2.34186 15.3477 2.65482C15.6643 2.97128 15.8577 3.27017 16.0195 3.68861C16.1427 4.00508 16.2904 4.4833 16.3291 5.35886C16.3713 6.30826 16.3819 6.59309 16.3819 8.99473C16.3819 11.3999 16.3713 11.6847 16.3291 12.6306C16.2904 13.5097 16.1427 13.9844 16.0195 14.3008C15.8577 14.7193 15.6607 15.0217 15.3477 15.3346C15.0311 15.6511 14.7321 15.8445 14.3135 16.0063C13.9969 16.1293 13.5185 16.277 12.6426 16.3157C11.6928 16.3579 11.4079 16.3684 9.00528 16.3684C6.59918 16.3684 6.31425 16.3579 5.36799 16.3157C4.48857 16.277 4.01368 16.1293 3.69709 16.0063C3.27848 15.8445 2.97596 15.6476 2.66289 15.3346C2.3463 15.0182 2.15282 14.7193 1.99101 14.3008C1.86789 13.9844 1.72015 13.5062 1.68145 12.6306C1.63924 11.6812 1.62869 11.3964 1.62869 8.99473C1.62869 6.58957 1.63924 6.30475 1.68145 5.35886C1.72015 4.47978 1.86789 4.00508 1.99101 3.68861C2.15282 3.27017 2.34981 2.96777 2.66289 2.65482C2.97948 2.33835 3.27848 2.14495 3.69709 1.9832C4.01368 1.86013 4.49209 1.71244 5.36799 1.67376C6.31425 1.63157 6.59918 1.62102 9.00528 1.62102ZM9.00528 0C6.56049 0 6.25445 0.0105489 5.29412 0.0527447C4.33731 0.0949404 3.6795 0.249658 3.10963 0.471186C2.51515 0.703262 2.01212 1.00918 1.51261 1.51201C1.00958 2.01133 0.703537 2.51416 0.47137 3.1049C0.249756 3.67806 0.0949775 4.3321 0.0527653 5.28853C0.0105531 6.252 0 6.55792 0 9.00176C0 11.4456 0.0105531 11.7515 0.0527653 12.7115C0.0949775 13.6679 0.249756 14.3255 0.47137 14.8951C0.703537 15.4894 1.00958 15.9922 1.51261 16.4915C2.01212 16.9908 2.51515 17.3003 3.10612 17.5288C3.6795 17.7503 4.33379 17.9051 5.2906 17.9473C6.25093 17.9895 6.55697 18 9.00176 18C11.4466 18 11.7526 17.9895 12.7129 17.9473C13.6697 17.9051 14.3275 17.7503 14.8974 17.5288C15.4884 17.3003 15.9914 16.9908 16.4909 16.4915C16.9904 15.9922 17.3 15.4894 17.5286 14.8986C17.7502 14.3255 17.905 13.6714 17.9472 12.715C17.9894 11.755 18 11.4491 18 9.00528C18 6.56144 17.9894 6.25552 17.9472 5.29557C17.905 4.33913 17.7502 3.68158 17.5286 3.11194C17.307 2.51416 17.001 2.01133 16.4979 1.51201C15.9984 1.0127 15.4954 0.703262 14.9044 0.474702C14.3311 0.253174 13.6768 0.0984567 12.72 0.056261C11.7561 0.0105489 11.4501 0 9.00528 0Z" fill="var(--fill-0, #746E6B)"/>
<path id="Vector_2" d="M9 5C6.79164 5 5 6.79164 5 9C5 11.2084 6.79164 13 9 13C11.2084 13 13 11.2084 13 9C13 6.79164 11.2084 5 9 5ZM9 11.5947C7.5673 11.5947 6.40532 10.4327 6.40532 9C6.40532 7.5673 7.5673 6.40532 9 6.40532C10.4327 6.40532 11.5947 7.5673 11.5947 9C11.5947 10.4327 10.4327 11.5947 9 11.5947Z" fill="var(--fill-0, #746E6B)"/>
<path id="Vector_3" d="M15 4.5C15 5.33062 14.3257 6 13.5 6C12.6694 6 12 5.32573 12 4.5C12 3.66938 12.6743 3 13.5 3C14.3257 3 15 3.67427 15 4.5Z" fill="var(--fill-0, #746E6B)"/>
</g>
</svg>
