<svg preserveAspectRatio="none" width="100%" height="100%" overflow="visible" style="display: block;" viewBox="0 0 16 16" fill="none" xmlns="http://www.w3.org/2000/svg">
<g id="Vector">
<path d="M6.40394 0C5.13736 0 3.89922 0.375584 2.8461 1.07926C1.79298 1.78293 0.972172 2.78309 0.487473 3.95325C0.0027747 5.12342 -0.124045 6.41104 0.123053 7.65328C0.37015 8.89552 0.980065 10.0366 1.87567 10.9322C2.77128 11.8278 3.91235 12.4377 5.15459 12.6848C6.39683 12.9319 7.68445 12.8051 8.85461 12.3204C10.0248 11.8357 11.0249 11.0149 11.7286 9.96177C12.4323 8.90865 12.8079 7.67051 12.8079 6.40393C12.806 4.70609 12.1307 3.07833 10.9301 1.87777C9.72954 0.677217 8.10178 0.00190686 6.40394 0ZM6.40394 11.2069C5.454 11.2069 4.5254 10.9252 3.73556 10.3974C2.94572 9.86969 2.33011 9.11957 1.96659 8.24194C1.60306 7.36432 1.50795 6.39861 1.69327 5.46693C1.8786 4.53524 2.33603 3.67944 3.00774 3.00774C3.67944 2.33603 4.53525 1.87859 5.46693 1.69327C6.39861 1.50795 7.36432 1.60306 8.24195 1.96659C9.11957 2.33011 9.86969 2.94572 10.3974 3.73556C10.9252 4.5254 11.2069 5.454 11.2069 6.40393C11.2056 7.67737 10.6992 8.89828 9.79873 9.79873C8.89828 10.6992 7.67737 11.2056 6.40394 11.2069Z" fill="var(--fill-0, #FBF8EF)"/>
<path d="M15.7753 14.6434L12.5733 11.4414C12.4224 11.2956 12.2201 11.2149 12.0103 11.2168C11.8004 11.2186 11.5996 11.3028 11.4512 11.4512C11.3028 11.5996 11.2186 11.8004 11.2168 12.0103C11.2149 12.2201 11.2956 12.4224 11.4414 12.5733L14.6434 15.7753C14.7944 15.9211 14.9966 16.0018 15.2065 16C15.4163 15.9981 15.6171 15.914 15.7655 15.7655C15.914 15.6171 15.9981 15.4163 16 15.2065C16.0018 14.9966 15.9211 14.7944 15.7753 14.6434Z" fill="var(--fill-0, #FBF8EF)"/>
<path d="M8.80541 5.60344H7.20443V4.00246C7.20443 3.79016 7.12009 3.58655 6.96997 3.43643C6.81985 3.2863 6.61624 3.20197 6.40394 3.20197C6.19163 3.20197 5.98802 3.2863 5.8379 3.43643C5.68778 3.58655 5.60344 3.79016 5.60344 4.00246V5.60344H4.00246C3.79016 5.60344 3.58655 5.68778 3.43643 5.8379C3.28631 5.98802 3.20197 6.19163 3.20197 6.40393C3.20197 6.61624 3.28631 6.81985 3.43643 6.96997C3.58655 7.12009 3.79016 7.20443 4.00246 7.20443H5.60344V8.80541C5.60344 9.01771 5.68778 9.22132 5.8379 9.37144C5.98802 9.52156 6.19163 9.6059 6.40394 9.6059C6.61624 9.6059 6.81985 9.52156 6.96997 9.37144C7.12009 9.22132 7.20443 9.01771 7.20443 8.80541V7.20443H8.80541C9.01771 7.20443 9.22132 7.12009 9.37144 6.96997C9.52157 6.81985 9.6059 6.61624 9.6059 6.40393C9.6059 6.19163 9.52157 5.98802 9.37144 5.8379C9.22132 5.68778 9.01771 5.60344 8.80541 5.60344Z" fill="var(--fill-0, #FBF8EF)"/>
</g>
</svg>
