<svg preserveAspectRatio="none" width="100%" height="100%" overflow="visible" style="display: block;" viewBox="0 0 5 9" fill="none" xmlns="http://www.w3.org/2000/svg">
<path id="Vector" d="M0.833984 0.5C0.872265 0.50036 0.911467 0.508865 0.949219 0.526367C0.98705 0.543932 1.02397 0.570932 1.05664 0.607422L1.0625 0.614258L4.38965 4.20996C4.45639 4.28231 4.5 4.38828 4.5 4.50586C4.49992 4.6235 4.45651 4.72947 4.38965 4.80176L1.0625 8.39746C0.996843 8.46828 0.916531 8.49997 0.841797 8.5L0.756836 8.48633C0.728225 8.47701 0.699887 8.46286 0.672852 8.44336C0.618526 8.40412 0.570738 8.34387 0.541016 8.2666C0.511268 8.18897 0.503029 8.10125 0.518555 8.0166C0.534129 7.93195 0.571472 7.85834 0.621094 7.80469L3.35938 4.84473L3.67383 4.50586L3.35938 4.16602L0.621094 1.20605L0.615234 1.19922L0.568359 1.14062C0.554469 1.11888 0.542428 1.09495 0.532227 1.06934C0.511762 1.01784 0.500468 0.960536 0.5 0.902344C0.499575 0.844271 0.50964 0.787282 0.529297 0.735352C0.548978 0.683382 0.577158 0.638416 0.610352 0.602539C0.643403 0.566826 0.680847 0.541215 0.71875 0.524414C0.756553 0.507697 0.795722 0.49967 0.833984 0.5Z" fill="var(--fill-0, #CB9559)" stroke="var(--stroke-0, #CB9559)"/>
</svg>
