<svg preserveAspectRatio="none" width="100%" height="100%" overflow="visible" style="display: block;" viewBox="0 0 16 16" fill="none" xmlns="http://www.w3.org/2000/svg">
<path id="Vector" d="M8 0C3.5888 0 0 3.5888 0 8C0 12.4112 3.5888 16 8 16C12.4112 16 16 12.4112 16 8C16 3.5888 12.4112 0 8 0ZM10.8 4.8C11.4624 4.8 12 5.3376 12 6C12 6.6624 11.4624 7.2 10.8 7.2C10.1376 7.2 9.6 6.6624 9.6 6C9.6 5.3376 10.1376 4.8 10.8 4.8ZM5.2 4.8C5.8624 4.8 6.4 5.3376 6.4 6C6.4 6.6624 5.8624 7.2 5.2 7.2C4.5376 7.2 4 6.6624 4 6C4 5.3376 4.5376 4.8 5.2 4.8ZM8 12.4C5.8432 12.4 4.0528 10.8472 3.676 8.8H12.324C11.9472 10.8472 10.1568 12.4 8 12.4Z" fill="var(--fill-0, #FBF8EF)"/>
</svg>
