<svg preserveAspectRatio="none" width="100%" height="100%" overflow="visible" style="display: block;" viewBox="0 0 14.6667 16" fill="none" xmlns="http://www.w3.org/2000/svg">
<path id="Vector" d="M7.27523 15.9951C6.06811 16.0386 4.86927 15.7921 3.79404 15.2795C2.71882 14.7669 1.80338 14.0053 1.13579 13.0681C-1.48639 8.95548 1.13579 5.08798 1.99888 4.00025L2.08208 3.89641C2.45969 3.53248 2.72417 3.07999 2.84734 2.58717C2.97051 2.09435 2.94776 1.57966 2.78151 1.09792C2.72563 0.926243 2.72945 0.742516 2.79242 0.572977C2.8554 0.403437 2.97431 0.256756 3.13217 0.153877C3.29003 0.0509977 3.47878 -0.00281814 3.67145 0.00011374C3.86413 0.00304562 4.05089 0.0625752 4.20505 0.170202C4.32665 0.255314 4.49123 0.35064 4.68505 0.465542C6.06628 1.15189 7.24517 2.14369 8.11803 3.35369C8.99089 4.56369 9.53098 5.95483 9.69079 7.40473C10.1474 6.50225 10.3965 5.52096 10.4222 4.52369C10.43 4.36982 10.4825 4.22081 10.5741 4.09254C10.6658 3.96427 10.793 3.86155 10.9424 3.79533C11.0918 3.72911 11.2577 3.70188 11.4225 3.71653C11.5872 3.73119 11.7445 3.78718 11.8778 3.87854C13.3735 4.90414 16.1182 9.05421 13.7237 12.7651C13.0367 13.7731 12.0827 14.5997 10.9534 15.1654C9.82406 15.731 8.55743 16.0168 7.27523 15.9951ZM4.72071 2.54143C4.56345 3.41589 4.15817 4.23538 3.54677 4.9152L3.46814 5.01308C2.57671 6.13401 0.717957 9.07719 2.70836 12.1991C3.21458 12.8827 3.9006 13.4341 4.70092 13.8007C5.50123 14.1672 6.38912 14.3367 7.27981 14.2929C8.24468 14.314 9.19924 14.1042 10.052 13.6835C10.9048 13.2628 11.6273 12.6453 12.1502 11.8901C12.6174 11.0712 12.8439 10.1518 12.8066 9.22511C12.7694 8.29844 12.4698 7.39739 11.9381 6.61319C11.5654 8.1514 10.62 9.51721 9.2693 10.4688C9.12565 10.5687 8.9536 10.6272 8.77456 10.6368C8.59552 10.6464 8.41739 10.6068 8.26235 10.5229C8.10731 10.4389 7.9822 10.3144 7.9026 10.1648C7.823 10.0152 7.79242 9.84714 7.81467 9.68148C8.35775 5.6361 6.37375 3.66576 4.72071 2.54143Z" fill="var(--fill-0, #FBF8EF)"/>
</svg>
