<svg preserveAspectRatio="none" width="100%" height="100%" overflow="visible" style="display: block;" viewBox="0 0 11.2 11.2" fill="none" xmlns="http://www.w3.org/2000/svg">
<path id="Vector" d="M0 0.7C0 0.514348 0.0737498 0.336301 0.205025 0.205025C0.336301 0.0737498 0.514348 0 0.7 0H2.2071C2.37279 7.62784e-05 2.53309 0.0589265 2.65947 0.166082C2.78585 0.273237 2.87013 0.421749 2.8973 0.5852L3.4153 3.6897C3.44005 3.83755 3.41668 3.98945 3.34863 4.12302C3.28059 4.2566 3.17145 4.3648 3.0373 4.4317L1.9537 4.9728C2.34228 5.93576 2.92098 6.8105 3.65524 7.54476C4.3895 8.27902 5.26424 8.85772 6.2272 9.2463L6.769 8.1627C6.83587 8.02868 6.94396 7.91963 7.07739 7.85159C7.21082 7.78356 7.36256 7.76011 7.5103 7.7847L10.6148 8.3027C10.7783 8.32987 10.9268 8.41415 11.0339 8.54053C11.1411 8.66691 11.1999 8.82721 11.2 8.9929V10.5C11.2 10.6857 11.1263 10.8637 10.995 10.995C10.8637 11.1263 10.6857 11.2 10.5 11.2H9.1C4.074 11.2 0 7.126 0 2.1V0.7Z" fill="var(--fill-0, #FBF8EF)"/>
</svg>
