<svg preserveAspectRatio="none" width="100%" height="100%" overflow="visible" style="display: block;" viewBox="0 0 16 16" fill="none" xmlns="http://www.w3.org/2000/svg">
<path id="Vector" d="M8 0C6.41775 0 4.87103 0.469191 3.55544 1.34824C2.23985 2.22729 1.21447 3.47672 0.608967 4.93853C0.00346626 6.40034 -0.15496 8.00887 0.153721 9.56072C0.462403 11.1126 1.22433 12.538 2.34315 13.6569C3.46197 14.7757 4.88743 15.5376 6.43928 15.8463C7.99113 16.155 9.59966 15.9965 11.0615 15.391C12.5233 14.7855 13.7727 13.7602 14.6518 12.4446C15.5308 11.129 16 9.58225 16 8C15.9975 5.87902 15.1539 3.84561 13.6541 2.34585C12.1544 0.846094 10.121 0.00245161 8 0ZM11.5722 8.8421H8.84211V11.5722C8.84211 11.7955 8.75338 12.0097 8.59546 12.1677C8.43753 12.3256 8.22334 12.4143 8 12.4143C7.77666 12.4143 7.56247 12.3256 7.40454 12.1677C7.24662 12.0097 7.1579 11.7955 7.1579 11.5722V8.8421H4.42779C4.20445 8.8421 3.99026 8.75338 3.83233 8.59546C3.67441 8.43753 3.58569 8.22334 3.58569 8C3.58569 7.77666 3.67441 7.56247 3.83233 7.40454C3.99026 7.24661 4.20445 7.15789 4.42779 7.15789H7.1579V4.42779C7.1579 4.20445 7.24662 3.99026 7.40454 3.83233C7.56247 3.6744 7.77666 3.58568 8 3.58568C8.22334 3.58568 8.43753 3.6744 8.59546 3.83233C8.75338 3.99026 8.84211 4.20445 8.84211 4.42779V7.15789H11.5722C11.7956 7.15789 12.0097 7.24661 12.1677 7.40454C12.3256 7.56247 12.4143 7.77666 12.4143 8C12.4143 8.22334 12.3256 8.43753 12.1677 8.59546C12.0097 8.75338 11.7956 8.8421 11.5722 8.8421Z" fill="var(--fill-0, #FBF8EF)"/>
</svg>
