<svg preserveAspectRatio="none" width="100%" height="100%" overflow="visible" style="display: block;" viewBox="0 0 16 16" fill="none" xmlns="http://www.w3.org/2000/svg">
<path id="Vector" d="M3.8133 16C3.63472 15.9995 3.45838 15.9584 3.29657 15.8796C3.13475 15.8007 2.99133 15.6861 2.87628 15.5436C2.76124 15.4011 2.67732 15.2342 2.63038 15.0545C2.58343 14.8747 2.57459 14.6865 2.60445 14.5028L3.29488 10.3042L0.369945 7.33233C0.206142 7.16542 0.0903346 6.95407 0.0356003 6.72214C-0.019134 6.4902 -0.010615 6.24692 0.0601953 6.01977C0.131006 5.79262 0.261287 5.59064 0.436327 5.43665C0.611368 5.28266 0.824195 5.18278 1.05078 5.1483L5.09176 4.53574L6.89905 0.714319C7.00033 0.499927 7.15712 0.319393 7.35167 0.19315C7.54623 0.066908 7.77077 0 7.9999 0C8.22902 0 8.45357 0.066908 8.64812 0.19315C8.84268 0.319393 8.99947 0.499927 9.10075 0.714319L10.908 4.53407L14.949 5.14663C15.1756 5.18094 15.3885 5.28068 15.5636 5.43458C15.7386 5.58848 15.869 5.79041 15.9398 6.01753C16.0106 6.24466 16.0191 6.48792 15.9644 6.71982C15.9096 6.95172 15.7937 7.16302 15.6299 7.32982L12.7049 10.3042L13.3953 14.502C13.4341 14.7374 13.4089 14.9795 13.3226 15.2008C13.2363 15.4221 13.0923 15.6138 12.907 15.7542C12.7217 15.8946 12.5025 15.9781 12.2741 15.9953C12.0456 16.0125 11.8172 15.9627 11.6145 15.8514L7.9999 13.8694L4.38533 15.8514C4.20907 15.9487 4.01272 15.9997 3.8133 16V16ZM2.02842 6.68471L4.55174 9.2518C4.69439 9.39659 4.80108 9.57546 4.86255 9.77293C4.92403 9.9704 4.93844 10.1805 4.90455 10.3851L4.30933 14.0088L7.42947 12.2971C7.60559 12.2013 7.80127 12.1513 7.9999 12.1513C8.19852 12.1513 8.39421 12.2013 8.57032 12.2971L11.6905 14.0079L11.0944 10.3851C11.0608 10.1804 11.0755 9.97021 11.1373 9.77274C11.199 9.57527 11.306 9.39647 11.4489 9.2518L13.9714 6.68555L10.484 6.15728C10.2872 6.12739 10.1004 6.04814 9.93941 5.92633C9.77846 5.80452 9.64826 5.64378 9.55997 5.45792L7.9999 2.1581L6.44063 5.45458C6.35248 5.64071 6.22235 5.80174 6.0614 5.92385C5.90045 6.04595 5.71349 6.12548 5.51658 6.15561L2.02842 6.68471Z" fill="var(--fill-0, #FBF8EF)"/>
</svg>
