<svg preserveAspectRatio="none" width="100%" height="100%" overflow="visible" style="display: block;" viewBox="0 0 12 16" fill="none" xmlns="http://www.w3.org/2000/svg">
<path id="Vector" d="M11.4711 0.0616565C11.1506 -0.0639313 10.7829 0.00646185 10.5369 0.23524L9.42857 1.26954L8.32029 0.23524C7.98514 -0.07753 7.44343 -0.07753 7.10829 0.23524L6 1.26954L4.89171 0.23524C4.55657 -0.07753 4.01486 -0.07753 3.67971 0.23524L2.57143 1.26954L1.46314 0.23524C1.218 0.00646185 0.850286 -0.0631314 0.528857 0.0616565C0.208286 0.184845 0 0.477616 0 0.800785V15.1994C0 15.5226 0.208286 15.8153 0.528857 15.9385C0.849429 16.0633 1.218 15.9945 1.46314 15.7649L2.57143 14.7306L3.67971 15.7649C4.01486 16.0777 4.55657 16.0777 4.89171 15.7649L6 14.7306L7.10829 15.7649C7.44343 16.0777 7.98514 16.0777 8.32029 15.7649L9.42857 14.7306L10.5369 15.7649C10.7006 15.9177 10.92 15.9993 11.1429 15.9993C11.2534 15.9993 11.3649 15.9801 11.4711 15.9385C11.7917 15.8153 12 15.5226 12 15.1994V0.800785C12 0.477616 11.7917 0.184845 11.4711 0.0616565ZM8.57143 11.9997H3.42857C2.95457 11.9997 2.57143 11.6421 2.57143 11.1998C2.57143 10.7574 2.95457 10.3999 3.42857 10.3999H8.57143C9.04543 10.3999 9.42857 10.7574 9.42857 11.1998C9.42857 11.6421 9.04543 11.9997 8.57143 11.9997ZM8.57143 8.80001H3.42857C2.95457 8.80001 2.57143 8.44245 2.57143 8.00009C2.57143 7.55773 2.95457 7.20017 3.42857 7.20017H8.57143C9.04543 7.20017 9.42857 7.55773 9.42857 8.00009C9.42857 8.44245 9.04543 8.80001 8.57143 8.80001ZM8.57143 5.60032H3.42857C2.95457 5.60032 2.57143 5.24276 2.57143 4.8004C2.57143 4.35804 2.95457 4.00048 3.42857 4.00048H8.57143C9.04543 4.00048 9.42857 4.35804 9.42857 4.8004C9.42857 5.24276 9.04543 5.60032 8.57143 5.60032Z" fill="var(--fill-0, #FBF8EF)"/>
</svg>
