<svg preserveAspectRatio="none" width="100%" height="100%" overflow="visible" style="display: block;" viewBox="0 0 337.141 44.2372" fill="none" xmlns="http://www.w3.org/2000/svg">
<g id="Group">
<path id="Vector" d="M203.667 30.6133V30.8284C203.176 31.4736 202.225 32.887 200.998 32.8256C200.998 32.8256 200.629 32.8256 200.292 32.672C198.512 31.7502 198.85 26.9876 199.003 24.7446C199.341 20.4122 200.077 18.8451 199.126 18.0155C198.267 17.3088 196.671 17.5854 195.751 18.3228C195.444 18.5686 195.168 18.8759 194.953 19.7055C194.032 19.0602 192.498 18.2613 190.596 18.2921C186.73 18.3843 183.569 21.8256 182.956 25.3898C182.771 26.4345 182.802 27.5714 183.017 28.6775C182.495 29.7837 181.912 30.4597 181.483 30.8591C181.084 31.2586 180.501 31.7194 178.752 32.5183C178.844 30.9513 178.813 28.5854 178.752 24.6217C178.752 24.6217 178.752 24.0993 178.599 22.3172C178.599 22.3172 178.599 21.7334 178.322 20.7809C178.108 19.9206 177.831 19.644 177.525 19.3982C176.604 18.6608 174.947 18.3843 174.149 19.091C173.382 19.7362 173.536 21.1189 173.873 23.1468C173.873 23.1468 173.873 23.3005 173.873 23.3312C174.548 27.4485 172.492 30.1831 172.462 30.2446C172.094 30.7669 171.081 32.0267 169.823 31.996C169.7 31.996 169.424 31.996 169.117 31.8731C167.338 31.0435 167.675 26.8954 167.828 24.9289C168.135 21.1189 168.81 19.8284 167.951 19.0295C167.123 18.2613 165.343 18.4764 164.392 19.3368C164.085 19.5826 163.533 20.1971 163.318 23.6384C163.195 25.3898 163.226 26.8647 163.318 27.9401C163.073 29.0155 162.735 29.968 162.275 30.6748C161.814 31.32 160.863 32.7334 159.636 32.672C159.636 32.672 159.237 32.672 158.93 32.5183C157.151 31.5965 157.488 26.834 157.641 24.591C157.979 20.2586 158.715 18.6915 157.764 17.8619C156.905 17.1552 155.31 17.4317 154.389 18.1692C154.082 18.415 153.806 18.7222 153.591 19.5518C152.671 18.9066 151.137 18.1077 149.203 18.1384C147.086 18.1999 145.184 19.2446 143.803 20.7502C143.404 21.2111 142.975 21.7027 142.698 22.2558C142.085 23.2083 141.717 24.1915 141.533 25.2362C141.287 26.6189 141.41 28.2474 141.901 29.6301C141.686 30.3368 141.44 30.9206 141.103 31.4122C140.643 32.0574 139.691 33.4708 138.464 33.4094C138.464 33.4094 138.065 33.4094 137.758 33.2558C135.979 32.334 136.316 27.5714 136.47 25.3284C136.807 20.996 137.544 19.4289 136.592 18.5993C136.286 18.3535 135.856 18.2306 135.426 18.2306H134.905C134.537 18.2921 134.291 18.3535 134.199 18.3843C133.862 18.5072 130.762 19.3982 129.32 18.1384C128.891 17.7697 128.768 17.3703 128.246 17.2474C127.848 17.1245 127.387 17.2474 127.08 17.5239C126.436 18.0463 126.283 19.2446 126.712 20.0127C126.866 20.32 127.142 20.5351 127.449 20.7194C127.541 23.1161 127.51 28.3396 125.884 30.7669C125.424 31.4122 124.472 32.8256 123.245 32.7641C123.245 32.7641 122.877 32.7641 122.539 32.6105C120.76 31.6887 121.097 26.9261 121.251 24.6831C121.588 20.3507 122.324 18.7837 121.373 17.9541C120.514 17.2474 118.919 17.5239 117.998 18.2613C117.691 18.5072 117.415 18.8144 117.2 19.644C116.28 18.9988 114.746 18.1999 112.843 18.2306C108.977 18.3228 105.817 21.7641 105.203 25.3284C104.743 28.063 105.602 31.4736 107.872 32.9485C109.284 33.8703 111.002 33.9932 111.002 33.9932C111.37 33.9932 112.168 34.0546 113.119 33.7781C115.267 33.1636 116.495 31.4122 117.047 30.6133C117.108 30.5211 117.139 30.4904 117.17 30.4289C117.292 30.982 117.507 31.32 117.63 31.5965C117.967 32.2418 118.244 32.7641 118.796 33.225C120.545 34.6384 123.49 34.4234 125.301 33.0714C126.221 32.3647 126.682 31.4429 126.927 30.8898C128.369 27.6636 128.615 23.915 128.615 21.1803C130.087 21.4876 131.867 21.2418 132.205 21.1803H132.297C132.297 21.3954 132.235 21.5798 132.174 21.8256C132.113 22.3787 132.051 23.0239 132.021 23.8535C131.898 26.0658 131.898 27.6943 132.021 28.9234C132.113 29.8451 132.235 30.5518 132.389 31.0435C132.511 31.5965 132.726 31.9345 132.849 32.2111C133.187 32.8563 133.463 33.3787 134.015 33.8703C135.764 35.2837 138.71 35.0686 140.52 33.7167C141.44 33.0099 141.901 32.0882 142.146 31.5351C142.269 31.2893 142.361 31.0435 142.422 30.8284C142.852 31.6887 143.466 32.3954 144.233 32.9178C145.644 33.8396 147.362 33.9625 147.362 33.9625C147.731 33.9625 148.528 34.0239 149.48 33.7474C151.627 33.1329 152.855 31.3815 153.407 30.5826C153.469 30.5211 153.499 30.4597 153.53 30.3982C153.653 30.9206 153.867 31.2893 153.99 31.5658C154.328 32.2111 154.604 32.7334 155.156 33.1943C156.905 34.6077 159.851 34.3926 161.661 33.0407C162.582 32.334 163.042 31.4122 163.287 30.8591C163.41 30.5211 163.563 30.2139 163.656 29.8759C163.656 29.9373 163.656 29.9988 163.717 30.0295C163.84 30.4904 164.054 30.8284 164.177 31.0742C164.515 31.658 164.791 32.0882 165.343 32.5183C167.092 33.7474 170.038 33.5937 171.848 32.3954C172.615 31.8731 172.953 31.2586 173.474 30.4904C173.935 29.7837 174.241 29.077 174.487 28.4317C174.61 30.091 174.61 32.0882 174.364 34.3926C173.812 34.577 173.382 34.7306 173.106 34.8228C169.087 36.4206 166.601 38.9094 166.755 41.0602C166.877 42.3815 167.89 43.2418 167.951 43.334C169.762 44.8396 172.983 44.2865 174.916 42.9653C177.555 41.1524 178.077 37.7418 178.599 34.0239C181.36 32.6412 182.25 31.7809 182.802 31.1356C182.956 30.9513 183.201 30.6133 183.447 30.2446C183.907 31.4122 184.613 32.3954 185.594 33.0714C187.006 33.9932 188.724 34.1161 188.724 34.1161C189.092 34.1161 189.89 34.1775 190.841 33.901C192.989 33.2865 194.217 31.5351 194.769 30.7362C194.83 30.644 194.861 30.6133 194.892 30.5518C195.014 31.1049 195.229 31.4429 195.352 31.7194C195.689 32.3647 195.966 32.887 196.518 33.3479C198.267 34.7613 201.212 34.5463 203.023 33.1943C203.943 32.4876 204.404 31.5658 204.649 31.0127C205.508 29.1384 205.938 27.1105 206.153 25.144H205.14C205.017 27.2641 204.588 29.5379 203.667 30.8898V30.6133ZM116.617 22.9932C116.495 25.2055 116.495 26.834 116.617 28.063C116.004 29.753 114.93 31.7502 113.119 32.1189C112.874 32.1803 112.322 32.2418 111.769 31.996C109.008 30.7362 109.253 22.4708 112.444 20.0742C112.69 19.8898 113.303 19.4597 114.101 19.4289C115.298 19.4289 116.249 20.32 116.74 20.996C116.679 21.5491 116.617 22.1943 116.587 23.0239L116.617 22.9932ZM153.008 22.9932C152.886 25.2055 152.886 26.834 153.008 28.063C152.395 29.753 151.321 31.7502 149.51 32.1189C149.265 32.1803 148.713 32.2418 148.16 31.996C145.399 30.7362 145.644 22.4708 148.835 20.0742C149.081 19.8898 149.694 19.4597 150.492 19.4289C151.689 19.4289 152.609 20.32 153.131 20.996C153.07 21.5491 153.039 22.1943 152.978 23.0239L153.008 22.9932ZM173.26 40.5072C172.861 41.2139 172.278 42.1356 171.204 42.4736C171.081 42.4736 169.792 42.8731 168.933 42.1049C168.933 42.1049 168.319 41.5518 168.289 40.5379C168.197 38.8787 170.651 37.0044 174.18 35.7753C174.272 36.8507 174.272 38.6943 173.26 40.5072ZM194.462 23.2083C194.339 25.4206 194.339 27.0491 194.462 28.2781C193.848 29.968 192.774 31.9653 190.964 32.334C190.719 32.3954 190.166 32.4569 189.614 32.2111C186.852 30.9513 187.098 22.6859 190.289 20.2893C190.534 20.1049 191.148 19.6748 191.946 19.644C193.143 19.644 194.063 20.5351 194.585 21.2111C194.523 21.7641 194.462 22.4094 194.431 23.239L194.462 23.2083Z" fill="var(--fill-0, #FBF8EF)"/>
<path id="Vector_2" d="M108.088 6.67527C107.781 6.2451 106.339 6.85963 104.928 7.13616C103.271 7.47415 102.289 7.22834 100.724 6.89035C100.478 5.99929 99.5579 5.32331 98.4226 5.32331C97.5635 5.32331 96.8578 5.69203 96.4282 6.27583C93.8201 6.03002 90.8438 6.1222 88.7573 7.87359C88.4197 8.15013 86.6094 9.65572 86.7628 11.6836C86.7628 11.868 86.9469 13.6809 88.4197 14.3261C89.0334 14.6026 90.2301 14.8177 90.6597 14.2339C91.3961 13.3429 89.5244 11.4993 90.3528 9.65572C90.5983 9.13337 90.9665 8.82611 91.212 8.61102C92.6234 7.4127 94.7099 7.59706 95.9986 7.87359V32.6082C95.9986 34.2674 97.6249 35.6501 99.6193 35.6194C100.264 35.6194 100.816 35.1585 100.816 34.6054V9.1641C103.056 9.53281 106.002 9.65572 107.474 8.05795C107.843 7.65851 108.272 6.95181 108.088 6.67527Z" fill="var(--fill-0, #FBF8EF)"/>
<path id="Vector_3" d="M335.822 24.467L335.669 24.5899C335.73 26.0033 335.546 28.2463 334.319 30.4586C333.153 32.548 331.895 32.9782 331.588 33.0703C331.25 33.1932 330.729 33.3161 330.238 33.1318C329.532 32.8245 329.164 31.9642 328.98 31.0424C328.673 29.5675 328.458 28.6458 328.581 25.7882C328.734 21.0256 328.703 20.196 328.949 17.1234C331.434 16.9698 333.153 16.6932 333.644 15.9251C333.705 15.8329 333.858 15.5564 333.766 15.4027C333.551 15.034 332.355 15.3413 331.833 15.4949C331.066 15.6485 330.207 15.7407 329.072 15.8329V15.4335C329.44 11.8078 329.961 10.4251 329.072 9.68765C328.212 8.98095 326.617 9.25748 325.696 9.99491C325.39 10.2407 325.113 10.548 324.899 11.3776C324.776 11.7463 324.715 12.2379 324.622 12.9139C324.469 14.1122 324.469 14.9111 324.469 14.9418V16.0173C322.72 16.0173 321.339 16.0173 321.032 16.6932C321.032 16.7547 320.94 16.8776 320.971 17.0312C321.155 17.615 322.904 17.5228 323.702 17.4614C323.947 17.4614 324.162 17.4614 324.408 17.3999V17.9837C324.408 17.9837 324.316 22.3469 324.408 25.9111C324.254 27.9698 323.825 30.0592 322.966 31.3189C322.505 31.9642 321.554 33.3776 320.327 33.3161C320.327 33.3161 319.959 33.3161 319.621 33.1625C317.841 32.2407 318.179 27.4782 318.332 25.2351C318.67 20.9027 319.406 19.3357 318.455 18.5061C317.596 17.7994 316 18.0759 315.08 18.8133C314.773 19.0592 314.527 19.3357 314.313 20.1653V20.2268C314.19 20.5955 314.129 21.1178 314.037 21.7631C314.037 22.0396 313.975 22.3161 313.944 22.6541C313.944 25.2966 313.699 29.3525 312.349 31.3804C311.889 32.0256 310.937 33.439 309.71 33.3776H309.465C309.465 33.3776 309.158 33.3161 309.004 33.2547C307.225 32.3329 307.562 27.5703 307.716 25.3273C308.053 20.9949 308.79 19.4279 307.838 18.5983C307.685 18.4754 307.47 18.3525 307.286 18.291C306.427 18.0145 305.169 18.291 304.433 18.9055C304.126 19.1513 303.85 19.4586 303.635 20.2882C303.512 20.6569 303.451 21.1793 303.359 21.8245C303.359 22.1932 303.267 22.5312 303.267 22.9614C303.113 24.5899 302.99 25.8804 302.776 27.048C302.53 28.5228 302.162 29.7212 301.487 30.9195C301.333 31.2268 299.891 33.6234 298.541 33.5005C298.296 33.5005 298.081 33.3776 298.05 33.3469C297.283 32.9782 296.946 32.0564 296.792 31.2575C296.485 29.7826 296.271 28.8608 296.393 26.0033C296.516 21.2407 296.485 20.4111 296.731 17.3385C297.743 17.2463 298.633 17.1849 299.339 17.062C300.352 16.8776 301.088 16.6318 301.364 16.1709C301.364 16.1709 301.426 16.1709 301.426 16.1094C301.487 16.0173 301.64 15.7407 301.548 15.5871C301.333 15.2184 300.137 15.5256 299.615 15.6793C298.848 15.8329 297.958 15.9251 296.854 16.0173C296.854 15.8944 296.854 15.71 296.915 15.6178C297.283 11.9921 297.805 10.6094 296.915 9.87201C296.056 9.1653 294.46 9.44184 293.54 10.1793C293.233 10.4251 292.957 10.7323 292.742 11.562C292.619 11.9307 292.558 12.4223 292.466 13.0983C292.282 14.2659 292.312 15.0955 292.312 15.1262C292.312 15.4335 292.251 15.8022 292.251 16.2016C290.502 16.2016 289.121 16.2016 288.814 16.8776C288.814 16.939 288.722 17.062 288.753 17.2156C288.937 17.7994 290.686 17.7072 291.484 17.6458C291.729 17.6458 291.944 17.6458 292.19 17.5843V18.1681C292.19 18.1681 292.098 22.4698 292.19 26.034C292.006 28.1234 291.607 30.2435 290.717 31.534C290.257 32.1793 289.305 33.5927 288.078 33.5312C288.078 33.5312 287.71 33.5312 287.372 33.3776C285.593 32.4558 285.93 27.6932 286.084 25.4502C286.421 21.1178 287.158 19.5508 286.206 18.7212C285.347 18.0145 283.752 18.291 282.831 19.0284C282.524 19.2742 282.248 19.5815 282.033 20.4111C281.911 20.7798 281.849 21.3022 281.757 21.9474C281.757 22.3161 281.696 22.6541 281.665 23.0843C281.297 26.71 281.113 28.9223 279.885 31.0117C279.732 31.3189 278.29 33.7156 276.94 33.5927C276.694 33.5927 276.48 33.4698 276.449 33.439C275.682 33.0703 275.344 32.1485 275.191 31.3497C274.884 29.8748 274.669 28.953 274.792 26.0955C274.945 21.3329 274.884 20.5033 275.16 17.4307C277.646 17.277 279.364 17.0005 279.855 16.2323C279.916 16.1402 280.039 15.8636 279.947 15.71C279.763 15.3413 278.535 15.6485 278.014 15.8022C277.277 15.9558 276.388 16.048 275.252 16.1402C275.252 16.0173 275.314 15.8329 275.314 15.7407C275.682 12.115 276.203 10.7323 275.314 9.99491C274.454 9.28821 272.859 9.56475 271.938 10.3022C271.632 10.548 271.355 10.8552 271.141 11.6849C271.018 12.0536 270.957 12.5452 270.864 13.2212C270.711 14.3888 270.711 15.2184 270.711 15.2491C270.711 15.5564 270.711 15.9251 270.65 16.3245C268.931 16.3245 267.551 16.3245 267.244 17.0005C267.244 17.062 267.152 17.1849 267.182 17.3385C267.367 17.9223 269.085 17.8301 269.913 17.7687C270.159 17.7687 270.374 17.7687 270.619 17.7072V18.291C270.619 18.291 270.527 22.9614 270.619 26.6485C269.238 27.724 267.98 28.3385 266.876 28.7379V28.6458C266.876 28.6458 266.876 28.3999 266.814 28.2463V28.1541C266.814 27.9083 266.722 27.6932 266.691 27.4167C266.262 25.2966 265.341 23.791 264.574 22.6234C262.979 20.1346 261.445 17.8916 260.033 15.9251C259.941 15.8022 259.788 15.6178 259.573 15.5564C259.021 15.372 258.438 15.8636 257.977 16.2016C257.609 16.4782 257.087 16.9083 256.842 17.6765C256.719 18.0759 256.75 18.2296 256.658 19.6122C256.658 20.0117 256.566 20.3189 256.535 20.534C256.535 20.5955 256.167 23.8832 255.523 26.9251C254.541 27.1402 254.08 27.5089 253.835 27.8161C252.853 28.8608 252.945 30.7351 253.589 32.1793C253.467 32.3329 253.344 32.4865 253.221 32.6402C252.884 33.0089 252.209 33.7156 251.258 33.7156C251.135 33.7156 250.889 33.7156 250.552 33.562C250.214 33.4083 249.969 33.1011 249.785 32.6709C249.079 31.2575 249.079 28.6765 249.202 26.7715V26.6793C249.202 26.4335 249.263 26.0955 249.294 25.696V25.5424C249.386 23.3301 249.416 20.3497 247.79 19.0284C247.514 18.8441 247.238 18.6904 246.931 18.629C246.072 18.3217 245.213 18.4139 244.967 18.4754C241.868 18.8441 240.089 22.4698 238.984 24.6821C238.677 25.2659 238.432 25.8189 238.278 26.3106V20.5955C238.278 19.4279 237.296 18.4446 236.1 18.4446C234.903 18.4446 233.952 19.4279 233.952 20.5955V33.8692C233.952 34.2994 234.32 34.6681 234.75 34.6681H235.885C237.235 34.6681 238.309 33.562 238.309 32.2407V31.1653C238.37 29.3217 238.892 27.9083 239.322 26.8944C240.488 24.0368 241.807 21.0256 243.863 20.7491C244.078 20.7491 244.292 20.6877 244.507 20.8106C245.09 21.1178 245.182 22.1011 244.998 26.71C244.998 27.724 244.937 27.6318 244.937 27.8776C244.937 29.9977 244.875 31.5033 245.734 32.8245C246.317 33.7156 247.085 34.2072 247.422 34.4223C249.355 35.4977 251.779 34.9754 253.313 33.8692C253.682 33.6234 253.958 33.3161 254.203 33.0089C255.799 35.0061 258.683 35.0061 260.002 35.0061C260.647 35.0061 261.813 35.0061 263.101 34.3916C263.715 34.1458 265.188 33.439 266.108 31.8106C266.323 31.4418 266.661 30.7044 266.814 29.7826C268.379 29.3217 269.698 28.4921 270.65 27.8776C270.65 28.2463 270.711 28.6765 270.742 29.0145C270.742 29.5675 270.834 30.305 271.11 31.1346C271.355 31.8413 271.754 33.1318 272.736 33.9921C274.485 35.467 277.461 35.1904 279.241 33.8385C280.162 33.1318 280.622 32.21 280.867 31.6569C281.236 30.8888 281.481 30.0899 281.727 29.2603C281.819 30.0592 281.911 30.6737 282.064 31.1346C282.187 31.6877 282.402 32.0256 282.524 32.3022C282.862 32.9474 283.138 33.4698 283.69 33.9307C285.439 35.3441 288.385 35.129 290.195 33.777C291.116 33.0703 291.576 32.1485 291.821 31.5955C292.067 31.0424 292.282 30.4279 292.466 29.8441C292.558 30.2128 292.619 30.643 292.773 31.1039C293.018 31.8106 293.417 33.1011 294.43 33.9614C296.148 35.4363 299.124 35.1597 300.935 33.8078C301.855 33.1011 302.315 32.1793 302.561 31.6262C302.806 31.0731 302.96 30.5508 303.144 29.9977C303.236 29.7519 303.297 29.4754 303.389 29.2296C303.481 30.0284 303.604 30.643 303.757 31.1039C303.88 31.6569 304.095 31.9949 304.218 32.2715C304.555 32.9167 304.831 33.439 305.384 33.8999C306.151 34.5145 307.163 34.8525 308.237 34.8525C309.557 34.9139 310.876 34.4837 311.889 33.7156C312.809 33.0089 313.269 32.0871 313.546 31.534C313.791 30.9809 313.975 30.4586 314.159 29.9055C314.251 30.3664 314.282 30.7659 314.405 31.0424C314.527 31.5955 314.742 31.9335 314.865 32.21C315.203 32.8552 315.479 33.3776 316.031 33.8692C317.78 35.2826 320.726 35.0675 322.536 33.7156C323.456 33.0089 323.917 32.0871 324.193 31.534C324.438 30.9502 324.653 30.3664 324.837 29.7826C324.899 30.1513 324.991 30.5815 325.113 31.0424C325.175 31.1653 325.727 32.9474 326.74 33.8999C328.243 35.2519 330.913 35.0675 332.754 34.2072C335.791 32.7016 336.528 28.953 336.896 27.2631C337.08 26.2491 337.141 25.3888 337.141 24.7742H335.975L335.822 24.467ZM257.732 19.9809C258.652 20.9949 259.726 22.439 260.616 24.3441C261.23 25.7575 261.598 27.0787 261.782 28.2156C260.033 27.5089 258.53 26.4335 256.627 26.372C257.179 24.0983 257.517 21.7631 257.732 19.9809ZM261.23 32.6709C261.076 32.8245 260.34 33.562 259.143 33.6849C257.885 33.777 256.719 33.1011 256.075 32.1793C255.492 31.3189 255.216 29.9363 255.768 28.953C255.768 28.953 255.921 28.7072 256.044 28.5843C257.272 27.2938 261.537 29.2296 261.966 29.4754C262.028 29.5983 262.396 31.4111 261.168 32.7016L261.23 32.6709Z" fill="var(--fill-0, #FBF8EF)"/>
<path id="Vector_4" d="M233.092 9.84104C233.46 9.47232 233.859 8.88852 233.675 8.61199C233.368 8.21254 231.896 8.73489 230.668 9.01143C228.919 9.38014 228.152 9.10361 226.342 8.76562C226.158 7.8131 225.207 7.07567 223.979 7.07567C222.967 7.07567 222.107 7.59802 221.739 8.36618C219.99 8.36618 217.137 8.55053 215.234 9.71813C214.713 10.0254 214.099 10.517 213.792 11.3159C213.7 11.531 213.301 12.6064 213.915 13.3746C214.559 14.1734 215.971 14.1734 216.462 13.6204C216.891 13.098 216.308 12.3299 216.83 11.3159C217.075 10.855 217.413 10.6092 217.658 10.4248C218.824 9.53377 220.42 9.53377 221.617 9.68741V33.2237C218.916 32.7014 217.321 32.6399 215.94 32.8857C215.326 33.0086 214.559 33.193 214.038 33.869C213.669 34.3913 213.301 35.3746 213.823 36.0505C214.406 36.8494 215.695 36.788 216.37 36.2964C216.768 35.9891 216.768 35.6511 217.014 35.3438C217.904 34.2377 220.389 34.76 221.248 34.9751C221.402 34.9751 221.586 35.0673 221.739 35.098L222.384 35.2209C223.642 35.4975 224.992 35.7433 226.25 35.8662H226.465C228.95 36.1734 231.221 36.0813 232.356 34.9137C233.031 34.207 233.307 33.0701 233.062 32.8857C232.816 32.7014 232.172 33.4081 230.883 33.8997C229.656 34.3606 228.582 34.3606 227.784 34.3606C227.293 34.3606 226.894 34.2991 226.434 34.2377V10.7628C228.582 11.1315 231.65 11.3466 233.123 9.87176L233.092 9.84104Z" fill="var(--fill-0, #FBF8EF)"/>
<path id="Vector_5" d="M283.814 15.6494C285.655 16.0795 287.834 14.1438 287.588 12.9762C287.404 11.9622 285.348 11.2248 283.814 11.7779C283.722 11.7779 281.973 12.4231 281.973 13.7136C281.973 14.6969 282.986 15.465 283.814 15.6494Z" fill="var(--fill-0, #FBF8EF)"/>
<path id="Vector_6" d="M66.7563 28.7977C66.2347 28.5212 65.5903 28.6441 65.1914 29.0743C60.5888 34.0519 55.1578 36.9402 49.8188 36.9402C48.9904 36.9402 48.1926 36.8787 47.3948 36.7558C47.3028 36.7558 47.2414 36.7558 47.1493 36.6944C47.2107 36.7251 47.2721 36.7866 47.3028 36.8173C49.7575 38.6301 52.9793 39.4905 56.5693 39.4905C61.4173 39.4905 66.9404 37.8927 72.2794 34.7586C73.0771 34.2977 73.1385 33.1916 72.4328 32.6078C70.5611 31.1022 68.6587 29.8117 66.6949 28.767L66.7563 28.7977Z" fill="var(--fill-0, #FBF8EF)"/>
<path id="Vector_7" d="M55.8338 24.3105C55.6497 24.6792 55.4349 25.0479 55.2201 25.4166C53.2257 28.735 50.5255 31.1931 47.3037 32.5451C46.3525 32.9445 45.34 33.2211 44.2967 33.4054C45.6775 34.0814 46.8741 34.3887 47.8253 34.573C48.5004 34.6959 49.1754 34.7267 49.8505 34.7267C54.6065 34.7267 59.5466 32.0535 63.7809 27.3524C64.0571 27.0758 64.3025 26.7686 64.548 26.4613C64.7935 26.1848 65.0389 25.8775 65.2844 25.5702C66.8493 23.573 68.2914 21.2686 69.5495 18.749C69.9177 17.9809 69.4881 17.0898 68.6596 16.9054C65.714 16.1987 62.8297 15.8915 60.1295 15.8915C59.9761 15.8915 59.8534 15.8915 59.7 15.8915C59.0863 15.8915 58.5647 16.3524 58.4419 16.9362C57.951 19.2099 57.2453 21.33 56.3554 23.2658C56.202 23.6345 56.0179 24.0032 55.8031 24.3719L55.8338 24.3105Z" fill="var(--fill-0, #FBF8EF)"/>
<path id="Vector_8" d="M47.5496 16.445C47.6109 16.8752 47.6416 17.2746 47.6416 17.6741C47.6416 18.135 47.6416 18.5651 47.6416 18.9953C47.5496 21.3305 47.0586 23.512 46.0767 25.4785C45.5244 26.6154 44.9414 27.445 44.6039 27.9059C43.2845 29.6573 41.8117 30.7634 40.8298 31.4087C40.9525 31.4087 41.0753 31.4087 41.198 31.4087H41.3514C41.5355 31.4087 41.7503 31.4087 41.9344 31.4087C42.4254 31.4087 42.8856 31.3472 43.3459 31.2858C44.6039 31.1014 45.6165 30.7942 46.4449 30.4562C48.7769 29.5037 50.802 27.8137 52.4283 25.54C52.7044 25.1405 52.9806 24.7411 53.2567 24.3417C53.4715 23.9729 53.717 23.5735 53.9318 23.1741C55.0057 21.1154 55.8342 18.7188 56.3558 16.107C56.4479 15.7383 56.5092 15.3389 56.5706 14.9394C56.632 14.5707 56.6933 14.1713 56.724 13.8025C57.0615 11.1908 57.1229 8.39473 56.8774 5.47573C56.8161 4.6154 55.9569 4.06233 55.1591 4.33886C51.9067 5.44501 48.9917 6.88914 46.4756 8.54836C45.9847 8.88635 45.8006 9.5316 46.0154 10.0847C46.8438 12.2355 47.3348 14.3863 47.5496 16.445Z" fill="var(--fill-0, #FBF8EF)"/>
<path id="Vector_9" d="M23.1547 36.9718C17.8158 36.9718 12.3847 34.0835 7.78217 29.1059C7.38328 28.6757 6.73892 28.5221 6.21729 28.8293C4.28421 29.874 2.35114 31.1645 0.479425 32.6701C-0.226302 33.2539 -0.13425 34.36 0.632844 34.8209C5.97182 37.955 11.4949 39.5528 16.3429 39.5528C19.9329 39.5528 23.1547 38.6617 25.6094 36.8796C25.6708 36.8489 25.7322 36.7874 25.7629 36.7567C25.6708 36.7567 25.6094 36.7567 25.5174 36.8181C24.7196 36.9411 23.9218 37.0025 23.1241 37.0025L23.1547 36.9718Z" fill="var(--fill-0, #FBF8EF)"/>
<path id="Vector_10" d="M7.7194 25.571C7.96487 25.8782 8.21034 26.1855 8.45581 26.4927C8.70128 26.8 8.94675 27.0765 9.22291 27.3838C13.4266 32.0849 18.3974 34.7581 23.1533 34.7581C23.8284 34.7581 24.5034 34.6967 25.1785 34.6045C26.1297 34.4509 27.3263 34.1129 28.7071 33.4369C27.6639 33.2525 26.6513 32.976 25.6694 32.5765C22.4476 31.2246 19.7474 28.7665 17.753 25.4481C17.5382 25.0793 17.3234 24.7414 17.1393 24.3419C16.9552 23.9732 16.7711 23.6352 16.587 23.2358C15.6972 21.3307 14.9915 19.2106 14.5005 16.9062C14.3778 16.3224 13.8562 15.8615 13.2425 15.8615C13.0891 15.8615 12.9663 15.8615 12.8129 15.8615C10.1127 15.8615 7.25915 16.1994 4.28282 16.8754C3.45436 17.0598 3.02478 17.9816 3.39299 18.719C4.65103 21.2693 6.09316 23.543 7.65804 25.5402L7.7194 25.571Z" fill="var(--fill-0, #FBF8EF)"/>
<path id="Vector_11" d="M16.434 14.9387C16.4954 15.3381 16.5874 15.7376 16.6488 16.1063C17.1704 18.718 17.9989 21.1147 19.0728 23.1733C19.2876 23.5728 19.5024 23.9722 19.7479 24.3409C19.9933 24.7711 20.2695 25.1705 20.5763 25.5393C22.2026 27.7823 24.2277 29.4722 26.5597 30.4555C27.3574 30.7934 28.37 31.1007 29.628 31.2851C30.0576 31.3465 30.5485 31.408 31.0395 31.408C31.2236 31.408 31.4384 31.408 31.6225 31.408H31.7759C31.7759 31.408 32.0214 31.408 32.1441 31.408C31.9293 31.2543 30.119 29.9024 29.045 28.7348C28.6768 28.3353 28.37 27.9052 28.37 27.9052C27.787 27.137 27.2961 26.3381 26.8665 25.4778C25.8846 23.5113 25.3937 21.3298 25.3016 18.9946C25.3016 18.5644 25.3016 18.1342 25.3016 17.6733C25.3016 17.2432 25.3323 16.8437 25.3937 16.4443C25.5778 14.3856 26.0994 12.2655 26.9279 10.1147C27.1426 9.56161 26.9585 8.91635 26.4676 8.57837C23.9515 6.91915 21.0366 5.47501 17.8148 4.36887C17.017 4.09233 16.1578 4.64541 16.0965 5.50574C15.851 8.42473 15.9124 11.2208 16.2499 13.8326C16.3113 14.232 16.3726 14.6007 16.4033 14.9694L16.434 14.9387Z" fill="var(--fill-0, #FBF8EF)"/>
<path id="Vector_12" d="M36.5022 9.10264C36.9011 9.10264 37.2386 8.76466 37.2386 8.36521C37.2386 7.96577 36.9011 7.62778 36.5022 7.62778C36.1033 7.62778 35.7658 7.96577 35.7658 8.36521C35.7658 8.76466 36.1033 9.10264 36.5022 9.10264Z" fill="var(--fill-0, #FBF8EF)"/>
<path id="Vector_13" d="M30.1516 26.5554C30.5505 27.0777 31.0414 27.6308 31.6858 28.2453C32.054 28.5833 32.4836 28.9213 32.9438 29.2593C33.0973 29.3515 33.5268 29.6895 34.1405 30.0582C34.8462 30.4884 35.2144 30.7342 35.5213 30.8264C36.4418 31.1029 37.2703 30.8878 37.4544 30.8264C37.7612 30.7342 38.1294 30.5191 38.8351 30.0582C39.4488 29.6895 39.9091 29.3515 40.0318 29.2593C40.5227 28.9213 40.9216 28.5833 41.2898 28.2453C41.9342 27.6615 42.4558 27.0777 42.824 26.5554C44.0821 24.8962 44.8798 22.9604 45.2173 20.871C45.3094 20.3487 45.3708 19.7649 45.4015 19.2118C45.4015 18.7509 45.4015 18.2593 45.4015 17.7984C45.3401 15.4939 44.7878 13.0666 43.8059 10.5777C43.6832 10.209 43.5297 9.84031 43.3456 9.50233C43.1922 9.16434 43.0388 8.79562 42.8547 8.45763C41.5353 5.78445 39.725 3.04981 37.4237 0.43808C36.9327 -0.145719 36.0122 -0.145719 35.5213 0.43808C33.22 3.04981 31.4096 5.78445 30.0902 8.45763C29.9061 8.79562 29.7527 9.16434 29.5993 9.50233C29.4459 9.87104 29.2925 10.2398 29.139 10.6085C28.1572 13.0973 27.6355 15.5554 27.5435 17.8291C27.5435 18.3208 27.5435 18.7817 27.5435 19.2425C27.5435 19.7956 27.6355 20.3794 27.7276 20.9018C28.0651 23.0219 28.8629 24.9269 30.1209 26.5861L30.1516 26.5554ZM35.5826 6.73696C35.8281 6.52188 36.1043 6.24534 36.5338 6.24534C36.9634 6.24534 37.3009 6.52188 37.5157 6.73696C37.7305 6.92132 38.3749 7.53585 38.3442 8.39618C38.3135 9.22579 37.6078 10.209 36.5338 10.209C35.4599 10.209 34.7542 9.25652 34.7235 8.39618C34.6928 7.5973 35.3065 7.0135 35.5826 6.76769V6.73696ZM32.7904 10.885C32.8518 10.6392 33.0973 10.3934 33.3427 10.3934C33.4655 10.3934 33.5268 10.3934 33.5882 10.4548C33.9257 10.6085 34.4473 10.7928 35.0917 10.9465C35.5213 11.0386 36.902 11.3766 38.1908 10.9465C39.2647 10.6085 39.7863 10.2398 39.7863 10.2398C39.9704 10.1169 40.1545 9.99395 40.2159 10.0247C40.3079 10.0861 39.9704 10.7928 39.3874 11.3152C39.3261 11.3459 39.0499 11.6224 38.6817 11.8068C37.2089 12.6057 34.7849 12.3291 33.5268 11.7146C33.3734 11.6532 33.22 11.561 33.0973 11.4688C32.7597 11.223 32.7291 11.0079 32.7291 10.9465V10.885H32.7904ZM33.7109 15.5861C33.8643 15.3096 33.9564 15.0945 33.8643 14.9716C33.8337 14.9101 33.7109 14.7872 33.5268 14.7258C33.2814 14.6336 33.1279 14.7258 33.0052 14.6029C33.0052 14.6029 32.9745 14.5414 32.9438 14.5107C32.8825 14.3878 32.8825 14.2649 32.8825 14.2342C32.8825 14.0498 33.0359 13.8962 33.0973 13.8347C33.22 13.7118 33.4041 13.6196 33.6189 13.5582C33.9871 13.4353 34.4473 13.4046 34.8769 13.3738C35.1224 13.3738 35.3679 13.3738 35.6133 13.3738C36.2065 13.3738 36.6157 13.3738 36.8407 13.3738C37.393 13.3738 37.8226 13.3738 38.1908 13.3431C38.9272 13.3124 39.3567 13.2817 39.5409 13.3738C39.6022 13.3738 39.6636 13.4353 39.6943 13.4967C39.817 13.7425 39.4795 14.142 39.4488 14.1727C39.234 14.4493 38.9272 14.5107 38.7431 14.5414H38.6817C38.4669 14.5722 38.3135 14.5414 38.1908 14.5414C37.9146 14.5414 37.6078 14.5414 37.3316 14.5414C37.1782 14.5414 37.0248 14.5414 36.902 14.5414C36.5645 14.5414 36.227 14.6643 35.8895 14.818C35.552 14.9716 35.2144 15.1867 34.969 15.4018C34.5394 15.7398 34.2326 16.1085 34.2019 16.3236C34.2019 16.3543 34.2019 16.385 34.2019 16.4157C34.2019 16.4465 34.2632 16.4772 34.2939 16.4772C34.4167 16.5386 34.6621 16.5079 35.061 16.723C35.4906 16.9688 35.552 17.1532 35.8281 17.1532C35.8588 17.1532 35.8895 17.1532 35.9202 17.1532V17.2146C35.9202 17.2146 35.9202 17.1532 35.9815 17.1532C36.1656 17.061 36.2884 16.8459 36.5338 16.6308C36.5338 16.6308 36.6259 16.5386 36.7793 16.4465C36.9941 16.2928 37.3316 16.1085 37.7612 15.9856H37.7919C38.1601 15.8934 38.6203 15.8627 39.0806 15.9856C39.4181 16.0777 39.7556 16.2314 40.0318 16.5079C40.6148 17.061 40.7068 17.8291 40.7375 18.0442C40.9216 19.8263 39.4181 21.6392 38.4362 22.5303C38.1294 22.8068 37.8839 23.0219 37.7612 23.0833C37.6998 23.0833 37.4237 23.2677 37.4544 23.3599C37.4544 23.4213 37.5771 23.452 37.6078 23.4828C37.8532 23.5442 38.1601 23.8822 38.4669 24.3124C38.6817 24.6196 38.8965 25.0191 39.0192 25.3571C39.142 25.6336 39.2954 26.1252 39.1113 26.3096C39.0499 26.3403 39.0192 26.371 38.9885 26.371C38.8044 26.4325 38.559 26.2174 38.2828 25.9101C38.0067 25.6029 37.6691 25.2342 37.2703 24.9884C37.1168 24.8655 36.9327 24.804 36.7793 24.7733H36.6259C36.6259 24.7733 36.5032 24.7426 36.4418 24.7426C36.3497 24.7426 36.2884 24.7426 36.227 24.7426C36.0429 24.804 35.8895 24.8655 35.7361 24.9884C35.5826 25.1113 35.3985 25.2342 35.1531 25.3878C34.969 25.5107 34.8155 25.6029 34.6928 25.6951C34.478 25.8487 34.386 25.8794 34.3246 25.8487C34.2019 25.7565 34.3246 25.2956 34.6008 24.8347C34.6928 24.7118 34.7542 24.5889 34.8769 24.4353C35.1224 24.128 35.3985 23.9437 35.6747 23.8208C35.8588 23.7286 36.0122 23.6671 36.135 23.6057L36.3191 23.5135C36.5032 23.4213 36.6566 23.3599 36.8407 23.237C37.0555 23.1141 37.2396 22.9912 37.4237 22.8068C37.7919 22.5303 38.1601 22.1615 38.4362 21.7928C38.8658 21.2398 39.1726 20.6252 39.3261 20.0107C39.4181 19.6727 39.6329 18.7509 39.1113 18.0442C39.0499 17.9828 38.7738 17.6141 38.3135 17.4297C38.1601 17.3682 37.976 17.3068 37.7919 17.3068C37.6078 17.3068 37.4237 17.3068 37.2396 17.399C37.1782 17.399 37.1168 17.4297 37.0555 17.4604C36.7793 17.5833 36.5338 17.737 36.4725 17.9828C36.4111 18.1979 36.4725 18.4437 36.5645 18.6588C36.7793 19.1504 37.1782 19.5805 36.9941 19.7649C36.9941 19.7649 36.9327 19.8263 36.902 19.8263H36.8714C36.6873 19.8878 36.5032 19.7649 36.2884 19.5805C36.0736 19.3962 35.7974 19.0889 35.4292 18.8431C35.4292 18.8124 35.4292 18.7817 35.4292 18.7509C35.4292 18.7509 35.4292 18.7817 35.4292 18.8124C35.3372 18.7509 35.2758 18.6895 35.1838 18.6588C34.9383 18.5051 34.7235 18.4129 34.6008 18.3515C33.3427 17.8291 32.5756 18.1671 32.4222 17.8599C32.1767 17.4297 33.3427 16.3236 33.8337 15.5861H33.7109Z" fill="var(--fill-0, #FBF8EF)"/>
<path id="Vector_14" d="M41.2587 34.7615C40.7063 34.4849 40.2461 34.3927 39.6938 34.2391C39.4176 34.1777 39.0801 34.0855 38.6505 34.024H38.5585C38.313 33.9626 38.0675 33.9319 37.7607 33.9011C37.638 33.9011 37.5152 33.9011 37.4232 33.9011C37.2698 33.9011 37.0857 33.9011 36.9322 33.9011C36.7788 33.9011 36.6561 33.9011 36.5027 33.9011C36.3799 33.9011 36.2265 33.9011 36.0731 33.9011C35.889 33.9011 35.7356 33.9011 35.5822 33.9011C35.4594 33.9011 35.3367 33.9011 35.2446 33.9011C34.9685 33.9011 34.6923 33.9626 34.4469 33.9933H34.3548C33.9252 34.0855 33.5877 34.1469 33.3116 34.2084C32.7593 34.362 32.3297 34.4542 31.7467 34.7307C31.0103 35.0995 28.709 36.1749 28.5863 37.8648C28.5863 38.0492 28.5863 38.2335 28.6169 38.4179C28.8931 39.7084 30.4273 40.8145 32.299 42.105C33.5263 42.9961 34.8151 43.5492 36.0424 43.8872C36.3493 43.9793 36.6561 43.9793 36.9322 43.8872C38.1903 43.5492 39.4483 42.9961 40.6757 42.105C42.5167 40.8145 44.0816 39.7084 44.3577 38.4179C44.3884 38.2335 44.4191 38.0492 44.3884 37.8648C44.235 36.1749 41.9644 35.0687 41.228 34.7307L41.2587 34.7615Z" fill="var(--fill-0, #FBF8EF)"/>
</g>
</svg>
