<svg preserveAspectRatio="none" width="100%" height="100%" overflow="visible" style="display: block;" viewBox="0 0 626.688 377.382" fill="none" xmlns="http://www.w3.org/2000/svg">
<g id="Group">
<path id="Vector" d="M573.695 247.244C569.212 244.87 563.674 245.925 560.247 249.618C520.693 292.353 474.02 317.15 428.137 317.15C421.018 317.15 414.162 316.622 407.306 315.567C406.515 315.567 405.987 315.567 405.196 315.04C405.724 315.303 406.251 315.831 406.515 316.095C427.61 331.659 455.298 339.045 486.149 339.045C527.813 339.045 575.277 325.328 621.159 298.42C628.015 294.464 628.542 284.967 622.478 279.955C606.392 267.029 590.044 255.949 573.167 246.98L573.695 247.244Z" fill="var(--fill-0, #61514A)"/>
<path id="Vector_2" d="M479.824 208.69C478.241 211.856 476.396 215.021 474.55 218.187C457.41 246.676 434.205 267.78 406.517 279.387C398.343 282.816 389.641 285.191 380.676 286.773C392.542 292.577 402.826 295.215 411 296.798C416.801 297.853 422.603 298.117 428.404 298.117C469.276 298.117 511.73 275.166 548.119 234.806C550.493 232.432 552.602 229.794 554.712 227.156C556.821 224.781 558.931 222.144 561.04 219.506C574.489 202.359 586.882 182.574 597.693 160.943C600.858 154.348 597.166 146.698 590.046 145.115C564.732 139.048 539.945 136.41 516.74 136.41C515.422 136.41 514.367 136.41 513.049 136.41C507.775 136.41 503.292 140.367 502.237 145.379C498.018 164.9 491.953 183.102 484.306 199.721C482.988 202.886 481.406 206.052 479.56 209.218L479.824 208.69Z" fill="var(--fill-0, #61514A)"/>
<path id="Vector_3" d="M408.635 141.196C409.162 144.889 409.426 148.318 409.426 151.748C409.426 155.705 409.426 159.398 409.426 163.091C408.635 183.139 404.416 201.869 395.978 218.752C391.231 228.512 386.221 235.634 383.321 239.591C371.982 254.628 359.325 264.124 350.887 269.664C351.941 269.664 352.996 269.664 354.051 269.664H355.369C356.952 269.664 358.797 269.664 360.38 269.664C364.599 269.664 368.554 269.136 372.509 268.609C383.321 267.026 392.022 264.388 399.142 261.486C419.183 253.309 436.586 238.8 450.562 219.279C452.935 215.85 455.308 212.421 457.682 208.991C459.527 205.826 461.637 202.396 463.483 198.967C472.712 181.293 479.832 160.717 484.314 138.294C485.105 135.129 485.633 131.699 486.16 128.27C486.688 125.104 487.215 121.675 487.479 118.51C490.379 96.0869 490.907 72.0816 488.797 47.0211C488.27 39.6348 480.886 34.8865 474.03 37.2607C446.079 46.7573 421.028 59.1556 399.406 73.4006C395.187 76.3023 393.605 81.842 395.45 86.5903C402.57 105.056 406.789 123.522 408.635 141.196Z" fill="var(--fill-0, #61514A)"/>
<path id="Vector_4" d="M198.988 317.431C153.105 317.431 106.432 292.634 66.8785 249.899C63.4505 246.206 57.913 244.887 53.4303 247.525C36.8178 256.494 20.2052 267.573 4.12009 280.499C-1.9448 285.511 -1.15372 295.008 5.43855 298.965C51.3208 325.872 98.7851 339.589 140.448 339.589C171.3 339.589 198.988 331.939 220.083 316.639C220.61 316.376 221.138 315.848 221.401 315.584C220.61 315.584 220.083 315.584 219.292 316.112C212.436 317.167 205.58 317.694 198.724 317.694L198.988 317.431Z" fill="var(--fill-0, #61514A)"/>
<path id="Vector_5" d="M66.3386 219.527C68.4481 222.165 70.5577 224.803 72.6672 227.441C74.7767 230.079 76.8862 232.453 79.2595 235.091C115.385 275.452 158.103 298.402 198.975 298.402C204.776 298.402 210.577 297.874 216.379 297.083C224.553 295.764 234.837 292.862 246.703 287.059C237.738 285.476 229.036 283.102 220.598 279.672C192.91 268.065 169.705 246.962 152.566 218.472C150.72 215.306 148.874 212.405 147.292 208.975C145.71 205.81 144.127 202.908 142.545 199.479C134.898 183.123 128.833 164.922 124.614 145.137C123.56 140.125 119.077 136.168 113.803 136.168C112.485 136.168 111.43 136.168 110.111 136.168C86.9065 136.168 62.3832 139.07 36.8052 144.873C29.6856 146.456 25.9939 154.37 29.1582 160.701C39.9695 182.596 52.363 202.117 65.8112 219.263L66.3386 219.527Z" fill="var(--fill-0, #61514A)"/>
<path id="Vector_6" d="M141.231 128.256C141.759 131.685 142.55 135.115 143.077 138.28C147.56 160.703 154.68 181.279 163.909 198.953C165.755 202.383 167.601 205.812 169.71 208.977C171.82 212.671 174.193 216.1 176.83 219.265C190.805 238.522 208.209 253.031 228.249 261.473C235.105 264.374 243.807 267.012 254.618 268.595C258.31 269.123 262.529 269.65 266.748 269.65C268.33 269.65 270.176 269.65 271.758 269.65H273.077C273.077 269.65 275.186 269.65 276.241 269.65C274.395 268.331 258.838 256.724 249.608 246.7C246.444 243.271 243.807 239.578 243.807 239.578C238.797 232.983 234.578 226.124 230.886 218.738C222.448 201.855 218.229 183.125 217.438 163.077C217.438 159.384 217.438 155.691 217.438 151.734C217.438 148.041 217.702 144.611 218.229 141.182C219.811 123.508 224.294 105.306 231.414 86.8403C233.26 82.092 231.677 76.5523 227.458 73.6506C205.836 59.4056 180.785 47.0073 153.098 37.5107C146.242 35.1365 138.858 39.8848 138.331 47.2711C136.221 72.3316 136.749 96.3369 139.649 118.76C140.177 122.189 140.704 125.354 140.968 128.52L141.231 128.256Z" fill="var(--fill-0, #61514A)"/>
<path id="Vector_7" d="M313.695 78.1661C317.123 78.1661 320.023 75.2643 320.023 71.835C320.023 68.4057 317.123 65.5039 313.695 65.5039C310.267 65.5039 307.366 68.4057 307.366 71.835C307.366 75.2643 310.267 78.1661 313.695 78.1661Z" fill="var(--fill-0, #61514A)"/>
<path id="Vector_8" d="M259.115 227.985C262.543 232.469 266.762 237.218 272.299 242.494C275.464 245.395 279.155 248.297 283.111 251.199C284.429 251.99 288.121 254.892 293.395 258.057C299.46 261.751 302.624 263.861 305.261 264.652C313.172 267.026 320.291 265.18 321.873 264.652C324.51 263.861 327.675 262.014 333.739 258.057C339.013 254.892 342.969 251.99 344.023 251.199C348.242 248.297 351.67 245.395 354.835 242.494C360.372 237.481 364.855 232.469 368.019 227.985C378.831 213.74 385.687 197.121 388.587 179.183C389.378 174.698 389.906 169.686 390.169 164.938C390.169 160.981 390.169 156.76 390.169 152.803C389.642 133.019 384.895 112.179 376.457 90.8114C375.403 87.6459 374.084 84.4803 372.502 81.5786C371.184 78.6768 369.865 75.5113 368.283 72.6096C356.944 49.6594 341.386 26.1816 321.61 3.75908C317.391 -1.25303 309.48 -1.25303 305.261 3.75908C285.484 26.1816 269.926 49.6594 258.588 72.6096C257.005 75.5113 255.687 78.6768 254.368 81.5786C253.05 84.7441 251.732 87.9097 250.413 91.0752C241.975 112.443 237.492 133.546 236.701 153.067C236.701 157.288 236.701 161.245 236.701 165.202C236.701 169.95 237.492 174.962 238.283 179.447C241.184 197.648 248.04 214.004 258.851 228.249L259.115 227.985ZM305.788 57.837C307.898 55.9905 310.271 53.6163 313.963 53.6163C317.654 53.6163 320.555 55.9905 322.401 57.837C324.247 59.4198 329.784 64.6957 329.52 72.082C329.257 79.2044 323.192 87.6459 313.963 87.6459C304.733 87.6459 298.669 79.4682 298.405 72.082C298.141 65.2233 303.415 60.2112 305.788 58.1008V57.837ZM281.792 93.4494C282.32 91.339 284.429 89.2286 286.539 89.2286C287.593 89.2286 288.121 89.2286 288.648 89.7562C291.549 91.0752 296.032 92.658 301.569 93.977C305.261 94.7683 317.127 97.6701 328.202 93.977C337.431 91.0752 341.914 87.9097 341.914 87.9097C343.496 86.8545 345.078 85.7993 345.606 86.0631C346.397 86.5907 343.496 92.658 338.486 97.1425C337.958 97.4063 335.585 99.7804 332.421 101.363C319.764 108.222 298.932 105.848 288.121 100.572C286.802 100.044 285.484 99.2529 284.429 98.4615C281.529 96.3511 281.265 94.5045 281.265 93.977V93.4494H281.792ZM289.703 133.81C291.021 131.436 291.813 129.589 291.021 128.534C290.758 128.007 289.703 126.951 288.121 126.424C286.011 125.632 284.693 126.424 283.638 125.369C283.638 125.369 283.374 124.841 283.111 124.577C282.583 123.522 282.583 122.467 282.583 122.203C282.583 120.62 283.902 119.301 284.429 118.774C285.484 117.719 287.066 116.927 288.912 116.4C292.076 115.344 296.032 115.081 299.723 114.817C301.833 114.817 303.942 114.817 306.052 114.817C311.15 114.817 314.666 114.817 316.6 114.817C321.346 114.817 325.038 114.817 328.202 114.553C334.53 114.289 338.222 114.025 339.804 114.817C340.332 114.817 340.859 115.344 341.123 115.872C342.178 117.982 339.277 121.412 339.013 121.675C337.167 124.05 334.53 124.577 332.948 124.841H332.421C330.575 125.105 329.257 124.841 328.202 124.841C325.829 124.841 323.192 124.841 320.819 124.841C319.5 124.841 318.182 124.841 317.127 124.841C314.226 124.841 311.326 125.896 308.425 127.215C305.524 128.534 302.624 130.381 300.514 132.227C296.823 135.129 294.186 138.295 293.922 140.141C293.922 140.405 293.922 140.669 293.922 140.932C293.922 141.196 294.449 141.46 294.713 141.46C295.768 141.988 297.877 141.724 301.305 143.57C304.997 145.681 305.524 147.264 307.898 147.264C308.161 147.264 308.425 147.264 308.689 147.264V147.791C308.689 147.791 308.689 147.264 309.216 147.264C310.798 146.472 311.853 144.626 313.963 142.779C313.963 142.779 314.754 141.988 316.072 141.196C317.918 139.877 320.819 138.295 324.51 137.239H324.774C327.938 136.448 331.894 136.184 335.849 137.239C338.75 138.031 341.65 139.35 344.023 141.724C349.033 146.472 349.825 153.067 350.088 154.914C351.67 170.214 338.75 185.778 330.311 193.428C327.675 195.802 325.565 197.648 324.51 198.176C323.983 198.176 321.61 199.759 321.873 200.55C321.873 201.078 322.928 201.341 323.192 201.605C325.301 202.133 327.938 205.035 330.575 208.728C332.421 211.366 334.267 214.795 335.322 217.697C336.376 220.071 337.695 224.292 336.113 225.874C335.585 226.138 335.322 226.402 335.058 226.402C333.476 226.93 331.366 225.083 328.993 222.445C326.62 219.807 323.719 216.642 320.291 214.531C318.973 213.476 317.391 212.948 316.072 212.685H314.754C314.754 212.685 313.699 212.421 313.172 212.421C312.38 212.421 311.853 212.421 311.326 212.421C309.744 212.948 308.425 213.476 307.107 214.531C305.788 215.586 304.206 216.642 302.097 217.961C300.514 219.016 299.196 219.807 298.141 220.599C296.295 221.918 295.504 222.181 294.977 221.918C293.922 221.126 294.977 217.169 297.35 213.212C298.141 212.157 298.669 211.102 299.723 209.783C301.833 207.145 304.206 205.562 306.579 204.507C308.161 203.716 309.48 203.188 310.535 202.66L312.117 201.869C313.699 201.078 315.017 200.55 316.6 199.495C318.445 198.44 320.027 197.385 321.61 195.802C324.774 193.428 327.938 190.262 330.311 187.097C334.003 182.348 336.64 177.072 337.958 171.796C338.75 168.895 340.595 160.981 336.113 154.914C335.585 154.386 333.212 151.22 329.257 149.638C327.938 149.11 326.356 148.583 324.774 148.583C323.192 148.583 321.61 148.583 320.027 149.374C319.5 149.374 318.973 149.638 318.445 149.901C316.072 150.957 313.963 152.276 313.435 154.386C312.908 156.233 313.435 158.343 314.226 160.189C316.072 164.41 319.5 168.103 317.918 169.686C317.918 169.686 317.391 170.214 317.127 170.214H316.863C315.281 170.741 313.699 169.686 311.853 168.103C310.007 166.521 307.634 163.883 304.47 161.772C304.47 161.508 304.47 161.245 304.47 160.981C304.47 160.981 304.47 161.245 304.47 161.508C303.679 160.981 303.151 160.453 302.36 160.189C300.251 158.871 298.405 158.079 297.35 157.552C286.539 153.067 279.946 155.969 278.628 153.331C276.519 149.638 286.539 140.141 290.758 133.81H289.703Z" fill="var(--fill-0, #61514A)"/>
<path id="Vector_9" d="M354.571 298.441C349.825 296.067 345.87 295.275 341.123 293.956C338.75 293.429 335.849 292.637 332.158 292.11H331.367C329.257 291.582 327.147 291.318 324.511 291.055C323.456 291.055 322.401 291.055 321.61 291.055C320.291 291.055 318.709 291.055 317.391 291.055C316.072 291.055 315.018 291.055 313.699 291.055C312.644 291.055 311.326 291.055 310.008 291.055C308.425 291.055 307.107 291.055 305.789 291.055C304.734 291.055 303.679 291.055 302.888 291.055C300.515 291.055 298.141 291.582 296.032 291.846H295.241C291.549 292.637 288.649 293.165 286.275 293.693C281.529 295.012 277.837 295.803 272.827 298.177C266.499 301.343 246.722 310.576 245.667 325.084C245.667 326.667 245.667 328.25 245.931 329.833C248.304 340.912 261.488 350.409 277.574 361.488C288.121 369.138 299.196 373.886 309.744 376.788C312.381 377.579 315.018 377.579 317.391 376.788C328.202 373.886 339.014 369.138 349.561 361.488C365.383 350.409 378.831 340.912 381.204 329.833C381.468 328.25 381.731 326.667 381.468 325.084C380.149 310.576 360.636 301.079 354.308 298.177L354.571 298.441Z" fill="var(--fill-0, #61514A)"/>
</g>
</svg>
