<?xml version="1.0" encoding="UTF-8"?><svg xmlns="http://www.w3.org/2000/svg" viewBox="0 0 40.7 24.52"><defs><style>.d{fill:#cb9559;}</style></defs><g id="a"/><g id="b"><g id="c"><g><path class="d" d="M40.43,18.2c-1.04-.84-2.11-1.55-3.19-2.14-.29-.16-.65-.08-.87,.16-2.56,2.78-5.6,4.39-8.57,4.39-.45,0-.9-.04-1.34-.11-.05-.01-.09-.02-.14-.03,.03,.02,.06,.04,.09,.07,1.37,1,3.17,1.49,5.17,1.49,2.7,0,5.79-.89,8.77-2.64,.44-.26,.48-.87,.09-1.19Z"/><path class="d" d="M31.14,13.56c-.11,.21-.22,.41-.34,.61-1.12,1.84-2.61,3.23-4.42,3.97-.54,.22-1.1,.38-1.68,.48,.76,.37,1.43,.55,1.98,.65,.37,.06,.75,.09,1.13,.09,2.65,0,5.41-1.49,7.77-4.11,.15-.16,.29-.33,.43-.5,.14-.16,.28-.33,.41-.5,.87-1.11,1.67-2.39,2.37-3.81,.21-.42-.03-.93-.49-1.03-1.65-.39-3.25-.57-4.75-.57-.08,0-.16,0-.24,0-.34,0-.63,.25-.7,.58-.27,1.27-.66,2.45-1.16,3.52-.09,.21-.19,.41-.3,.61Z"/><path class="d" d="M26.53,9.18c.03,.23,.04,.45,.05,.68h0c.01,.25,.01,.49,0,.74-.04,1.3-.33,2.51-.87,3.61-.31,.63-.64,1.09-.83,1.35-.74,.98-1.55,1.59-2.11,1.95,.07,0,.14,0,.21,0h.09c.11,0,.22,0,.33,0,.28-.01,.54-.03,.78-.07,.7-.1,1.27-.28,1.72-.46,1.31-.54,2.44-1.48,3.34-2.73,.15-.22,.31-.44,.45-.68,.13-.21,.25-.43,.37-.65,.6-1.15,1.06-2.48,1.36-3.94,.04-.21,.08-.43,.12-.65,.03-.21,.07-.42,.09-.64,.19-1.45,.22-3.01,.09-4.64-.04-.47-.51-.78-.96-.63-1.81,.62-3.44,1.42-4.84,2.35-.28,.19-.38,.55-.26,.86,.46,1.2,.74,2.39,.85,3.54Z"/><path class="d" d="M12.9,20.61c-2.97,0-6.02-1.61-8.57-4.39-.22-.24-.58-.32-.87-.16-1.08,.58-2.15,1.3-3.19,2.14-.4,.32-.35,.94,.09,1.19,2.98,1.75,6.07,2.64,8.76,2.64,2.01,0,3.8-.49,5.17-1.49,.03-.02,.06-.04,.09-.07-.05,.01-.09,.02-.14,.03-.44,.07-.89,.11-1.34,.11Z"/><path class="d" d="M4.29,14.26c.13,.18,.27,.34,.41,.51,.14,.17,.28,.33,.43,.49,2.35,2.62,5.12,4.11,7.77,4.11,.38,0,.76-.03,1.13-.09,.54-.09,1.21-.28,1.97-.65-.59-.1-1.15-.26-1.69-.48-1.8-.75-3.3-2.13-4.42-3.97-.12-.2-.24-.4-.34-.61-.11-.2-.21-.4-.3-.61-.5-1.07-.89-2.25-1.16-3.52-.07-.33-.36-.58-.7-.58-.08,0-.16,0-.24,0-1.5,0-3.1,.18-4.75,.57-.46,.11-.7,.61-.49,1.03,.7,1.42,1.5,2.69,2.37,3.81Z"/><path class="d" d="M9.15,8.34c.04,.22,.08,.44,.12,.65,.29,1.46,.75,2.79,1.36,3.94,.12,.23,.24,.44,.37,.65,.14,.24,.3,.46,.45,.68,.91,1.26,2.04,2.2,3.34,2.73,.44,.18,1.01,.36,1.72,.45,.24,.04,.51,.06,.79,.07,.11,0,.22,0,.33,0h.09c.07,0,.14,0,.21,0-.12-.09-1.13-.83-1.73-1.49-.21-.23-.38-.46-.38-.46-.33-.43-.6-.88-.83-1.36-.54-1.1-.82-2.32-.87-3.61,0-.24,0-.48,0-.73h0c0-.23,.02-.46,.05-.69,.11-1.15,.39-2.33,.85-3.53,.12-.31,.02-.67-.26-.86-1.4-.93-3.03-1.73-4.84-2.35-.45-.15-.92,.16-.96,.63-.13,1.63-.1,3.19,.09,4.64,.03,.22,.06,.43,.09,.64Z"/><path class="d" d="M20.35,5.09c.23,0,.42-.19,.42-.42s-.19-.42-.42-.42-.41,.19-.41,.42,.18,.42,.41,.42Z"/><path class="d" d="M16.81,14.8c.22,.29,.5,.6,.86,.94,.21,.19,.44,.38,.71,.57,.08,.05,.32,.23,.67,.45,.4,.25,.6,.37,.77,.42,.52,.16,.98,.03,1.07,0,.17-.05,.37-.17,.77-.42,.35-.21,.59-.39,.67-.45,.27-.19,.5-.38,.71-.57,.36-.33,.64-.65,.86-.94,.7-.92,1.14-2,1.33-3.17,.05-.3,.08-.61,.1-.92,.01-.26,.02-.53,0-.79-.04-1.28-.34-2.64-.89-4.03-.07-.2-.15-.4-.25-.6-.08-.19-.17-.39-.27-.58-.73-1.5-1.75-3.01-3.03-4.47-.28-.32-.79-.32-1.07,0-1.28,1.46-2.3,2.98-3.02,4.47-.1,.19-.19,.39-.28,.58-.09,.2-.18,.41-.25,.61-.55,1.39-.85,2.75-.89,4.03-.02,.27-.02,.53,0,.79,.02,.32,.05,.63,.1,.92,.19,1.17,.63,2.24,1.33,3.16Zm3.02-11.04c.13-.12,.29-.27,.53-.28,.24,0,.42,.16,.54,.27,.12,.11,.48,.44,.45,.92-.02,.46-.42,1-1,1s-.99-.54-1-1c-.02-.45,.32-.76,.48-.91Zm-1.56,2.32c.03-.14,.17-.28,.32-.28,.06,0,.11,.01,.14,.03,.19,.08,.48,.19,.84,.27,.24,.06,1,.24,1.73,0,.6-.19,.9-.39,.9-.39,.11-.07,.2-.14,.23-.12,.04,.04-.14,.43-.45,.73-.03,.02-.18,.17-.39,.28-.82,.45-2.18,.3-2.87-.06-.09-.04-.17-.08-.23-.13-.19-.14-.2-.25-.2-.29,0-.01,0-.03,0-.04Zm.51,2.62c.09-.15,.14-.28,.09-.35-.02-.03-.09-.1-.19-.14-.14-.06-.22-.02-.29-.07h-.01s-.02-.04-.03-.06c-.03-.06-.03-.13-.03-.15,.01-.11,.09-.19,.12-.22,.07-.07,.17-.12,.3-.15,.2-.06,.45-.09,.7-.1,.14,0,.28-.01,.4-.01q.5,0,.69,0c.3,0,.55-.02,.75-.02,.42-.02,.64-.03,.76,.02,.04,.01,.06,.03,.08,.07,.07,.14-.12,.37-.13,.38-.12,.15-.3,.19-.39,.21-.01,0-.03,0-.04,0-.12,.02-.2,.02-.28,.01-.16-.01-.32,0-.48,0-.08,0-.17,.01-.24,.02-.18,0-.38,.06-.56,.15-.19,.09-.37,.2-.52,.33-.24,.19-.41,.4-.42,.52-.01,.02,0,.04,0,.06,.01,.02,.03,.03,.05,.04,.07,.03,.2,.02,.42,.13,.24,.13,.28,.24,.42,.24,.02,0,.04,0,.06-.01,0,.01,0,.02,.01,.03,0-.01,0-.03,.02-.04,.1-.04,.17-.17,.32-.3,0,0,.05-.04,.14-.11,.12-.08,.3-.19,.54-.25,0,0,.02,0,.02,0,.21-.05,.47-.06,.73,0,.19,.05,.38,.14,.54,.29,.33,.31,.38,.73,.4,.86,.11,1-.74,2.01-1.28,2.51-.17,.16-.31,.27-.38,.31-.03,.02-.18,.1-.17,.16,.01,.04,.07,.06,.09,.06,.14,.04,.32,.22,.48,.46,.12,.18,.23,.39,.31,.59,.06,.15,.16,.42,.06,.53-.03,.02-.05,.03-.06,.03-.11,.03-.24-.08-.39-.25-.16-.17-.34-.38-.56-.52-.09-.06-.18-.11-.28-.13-.03,0-.06-.01-.09-.02-.02,0-.06,0-.11,0-.04,0-.09,0-.13,.02h0c-.1,.03-.18,.07-.28,.14-.09,.06-.19,.14-.32,.23-.11,.07-.19,.13-.25,.17-.12,.08-.18,.11-.21,.08-.07-.05,0-.31,.15-.56,.04-.07,.09-.14,.15-.22,.14-.17,.3-.28,.44-.35,.1-.06,.18-.09,.25-.12l.1-.05c.1-.04,.19-.09,.28-.16,.12-.07,.23-.14,.33-.24,.21-.16,.4-.36,.57-.57,.24-.31,.42-.65,.5-.99,.04-.19,.17-.7-.12-1.1-.03-.04-.18-.24-.44-.34-.09-.04-.19-.06-.3-.06-.09,0-.2,.01-.3,.04-.03,.01-.07,.02-.1,.04-.16,.06-.28,.16-.33,.3-.04,.12,0,.25,.05,.37h0c.12,.27,.34,.51,.24,.62-.01,.02-.03,.03-.04,.03,0,0-.02,0-.02,0-.11,.03-.2-.03-.33-.15-.12-.11-.28-.27-.49-.41,0-.02-.01-.04-.02-.06,0,.01-.01,.02-.01,.03-.04-.03-.09-.06-.13-.09-.14-.09-.26-.14-.33-.17-.7-.3-1.12-.11-1.22-.28-.13-.24,.51-.86,.79-1.27Z"/><path class="d" d="M23,19.38c-.32-.15-.56-.21-.87-.29h0c-.15-.04-.35-.08-.58-.12-.02,0-.03,0-.05,0-.13-.02-.28-.04-.44-.05-.07,0-.13-.01-.2-.02-.09,0-.18-.01-.28-.01-.08,0-.16,0-.23,0-.08,0-.15,0-.23,0-.1,0-.19,0-.28,.01-.07,0-.13,0-.2,.02-.16,.02-.3,.03-.44,.06h-.05c-.23,.05-.43,.09-.58,.13h0c-.31,.08-.56,.14-.87,.29-.41,.2-1.69,.8-1.77,1.75,0,.11,0,.21,.02,.31,.15,.72,1.01,1.33,2.05,2.05h0c.69,.49,1.4,.81,2.1,1,.16,.04,.34,.04,.5,0,.7-.18,1.41-.5,2.1-1h0c1.03-.72,1.9-1.33,2.05-2.05,.02-.1,.03-.2,.02-.31-.08-.95-1.35-1.55-1.77-1.75Z"/></g></g></g></svg>